<svg xmlns="http://www.w3.org/2000/svg" viewBox="0 0 1200 1200"><path opacity=".1" d="M608.817 1150c-71.122 0-140.116-13.929-205.059-41.397-62.733-26.534-119.074-64.519-167.458-112.908-48.385-48.381-86.373-104.723-112.907-167.456-27.467-64.945-41.397-133.932-41.397-205.056 0-71.128 13.929-140.119 41.397-205.058 26.534-62.738 64.521-119.08 112.907-167.464 48.383-48.386 104.725-86.373 167.458-112.904 64.943-27.468 133.936-41.398 205.059-41.398 71.123 0 140.118 13.926 205.061 41.396 62.728 26.534 119.073 64.52 167.458 112.906 48.381 48.384 86.37 104.725 112.905 167.457 27.47 64.943 41.394 133.937 41.394 205.061s-13.924 140.116-41.394 205.06c-26.535 62.733-64.524 119.071-112.905 167.456-48.385 48.388-104.729 86.373-167.458 112.908C748.935 1136.071 679.94 1150 608.817 1150z"/><path fill="#4376B9" d="M1128.002 581.819c0 293.72-238.099 531.819-531.819 531.819S64.365 875.539 64.365 581.819 302.463 50 596.183 50s531.819 238.099 531.819 531.819z"/><path opacity=".5" fill="#3A5379" d="M607.161 280.335c180.717 0 357.129 57.888 502.455 162.494C1048.502 216.526 841.81 50 596.183 50 343.269 50 131.609 226.544 77.676 463.119c150.196-117.381 337.405-182.784 529.485-182.784z"/><radialGradient id="a" cx="596.183" cy="581.819" r="485.469" gradientUnits="userSpaceOnUse"><stop offset=".945" stop-color="#fff"/><stop offset="1" stop-color="#cacaca"/></radialGradient><circle fill="url(#a)" cx="596.183" cy="581.819" r="485.469"/><path fill="#F6F6F6" d="M608.907 248.465c146.874 0 290.898 38.25 417.706 108.727C945.548 202.17 783.243 96.35 596.183 96.35c-195.417 0-363.839 115.479-440.821 281.905 135.171-83.891 292.648-129.79 453.545-129.79z"/><linearGradient id="b" gradientUnits="userSpaceOnUse" x1="597.349" y1="1451.468" x2="597.349" y2="-1362.075"><stop offset=".07" stop-color="#fff"/><stop offset=".33" stop-color="#f6f6f6"/><stop offset=".748" stop-color="#dfdfdf"/><stop offset=".907" stop-color="#d4d4d4"/></linearGradient><path fill="url(#b)" d="M597.35 1045.432c-62.589 0-123.305-12.257-180.456-36.43-55.207-23.351-104.788-56.779-147.366-99.361-42.58-42.576-76.01-92.158-99.36-147.365-24.172-57.152-36.43-117.863-36.43-180.454 0-62.594 12.258-123.307 36.43-180.455 23.351-55.211 56.78-104.793 99.36-147.371 42.579-42.58 92.16-76.01 147.366-99.358 57.151-24.173 117.867-36.431 180.456-36.431 62.589 0 123.306 12.255 180.458 36.429 55.202 23.35 104.787 56.779 147.366 99.36 42.576 42.578 76.007 92.161 99.359 147.365 24.174 57.152 36.427 117.867 36.427 180.458 0 62.591-12.253 123.305-36.427 180.457-23.352 55.207-56.783 104.785-99.359 147.365-42.579 42.583-92.164 76.011-147.366 99.361-57.152 24.173-117.869 36.43-180.458 36.43z"/><linearGradient id="c" gradientUnits="userSpaceOnUse" x1="596.05" y1="100.26" x2="596.05" y2="1068.349"><stop offset=".008" stop-color="#5f646a"/><stop offset=".309" stop-color="#767c85"/><stop offset=".643" stop-color="#8b919c"/><stop offset=".85" stop-color="#9299a5"/></linearGradient><path opacity=".2" fill="url(#c)" d="M596.05 136.049c60.187 0 118.563 11.782 173.51 35.026 53.08 22.45 100.758 54.595 141.702 95.536 40.941 40.945 73.082 88.616 95.533 141.699 23.243 54.947 35.029 113.327 35.029 173.509 0 60.185-11.786 118.558-35.029 173.509-22.451 53.082-54.592 100.754-95.533 141.697-40.944 40.942-88.622 73.089-141.702 95.542-54.948 23.241-113.323 35.023-173.51 35.023h-.001c-60.174 0-118.551-11.782-173.5-35.027-53.081-22.454-100.757-54.598-141.702-95.544-40.944-40.943-73.084-88.615-95.541-141.696-23.24-54.951-35.026-113.323-35.026-173.5 0-60.183 11.786-118.565 35.022-173.513 22.452-53.08 54.596-100.754 95.541-141.698 40.94-40.942 88.615-73.087 141.698-95.537 54.95-23.243 113.331-35.026 173.509-35.026zm0-18.875c-256.615 0-464.644 208.03-464.644 464.65 0 256.615 208.029 464.641 464.644 464.641 256.618 0 464.643-208.026 464.643-464.645 0-256.617-208.025-464.646-464.643-464.646z"/><path fill="#494942" d="M322.53 271.964a2.51 2.51 0 0 0 .194-3.546l-19.372-21.514a2.536 2.536 0 0 0-3.561-.193l-2.493 2.245a2.541 2.541 0 0 0-.177 3.565l19.371 21.513a2.506 2.506 0 0 0 3.545.175l2.493-2.245zm33.519-26.956a2.513 2.513 0 0 0 .562-3.508l-17.016-23.418a2.535 2.535 0 0 0-3.521-.564l-2.711 1.974a2.543 2.543 0 0 0-.548 3.528l17.016 23.422a2.503 2.503 0 0 0 3.505.543l2.713-1.977zM185.321 578.441c0-1.398.003-1.671.003-1.671a2.492 2.492 0 0 0-2.49-2.517h-28.95a2.555 2.555 0 0 0-2.542 2.517s-.003.274-.003 1.671c0 1.402.003 1.686.003 1.686a2.556 2.556 0 0 0 2.542 2.517h28.95a2.492 2.492 0 0 0 2.49-2.517s-.003-.284-.003-1.686zm245.272-376.146a2.511 2.511 0 0 0 1.28-3.313l-11.777-26.457a2.535 2.535 0 0 0-3.326-1.284l-3.065 1.368a2.541 2.541 0 0 0-1.27 3.336l11.778 26.454a2.506 2.506 0 0 0 3.317 1.262l3.063-1.366zm40.226-15.262a2.508 2.508 0 0 0 1.62-3.159l-8.949-27.542a2.542 2.542 0 0 0-3.176-1.629l-3.191 1.037a2.539 2.539 0 0 0-1.612 3.183l8.948 27.542a2.507 2.507 0 0 0 3.167 1.603l3.193-1.035zm84.13-17.442a2.501 2.501 0 0 0 2.241-2.748l-3.028-28.793a2.546 2.546 0 0 0-2.768-2.257l-3.338.345a2.53 2.53 0 0 0-2.239 2.771l3.026 28.794a2.516 2.516 0 0 0 2.766 2.233l3.34-.345zm-42.522 6.508a2.507 2.507 0 0 0 1.941-2.971l-6.024-28.326a2.54 2.54 0 0 0-2.988-1.951l-3.282.692a2.536 2.536 0 0 0-1.936 2.995l6.023 28.328a2.512 2.512 0 0 0 2.983 1.928l3.283-.695zm-120.229 45.598a2.51 2.51 0 0 0 .928-3.427l-14.475-25.076a2.54 2.54 0 0 0-3.445-.933l-2.905 1.679a2.537 2.537 0 0 0-.916 3.447l14.479 25.075a2.51 2.51 0 0 0 3.432.911l2.902-1.676zm-186.34 228.146a2.51 2.51 0 0 0-1.604-3.168l-27.541-8.95a2.538 2.538 0 0 0-3.182 1.612l-1.037 3.193a2.54 2.54 0 0 0 1.628 3.176l27.538 8.95a2.508 2.508 0 0 0 3.159-1.62l1.039-3.193zm-11.277 41.515a2.508 2.508 0 0 0-1.926-2.982l-28.324-6.018a2.538 2.538 0 0 0-2.996 1.936l-.694 3.283a2.542 2.542 0 0 0 1.953 2.988l28.323 6.019a2.507 2.507 0 0 0 2.971-1.942l.693-3.284zm-6.855 42.47a2.518 2.518 0 0 0-2.235-2.766l-28.792-3.026a2.532 2.532 0 0 0-2.772 2.239l-.346 3.338a2.548 2.548 0 0 0 2.259 2.768l28.792 3.028a2.5 2.5 0 0 0 2.746-2.242l.348-3.339zm104.27-231.577a2.507 2.507 0 0 0-.176-3.545l-21.515-19.372a2.54 2.54 0 0 0-3.564.178l-2.246 2.493a2.534 2.534 0 0 0 .192 3.56l21.516 19.373a2.51 2.51 0 0 0 3.546-.194l2.247-2.493zm-27.225 33.3a2.503 2.503 0 0 0-.543-3.505l-23.423-17.017a2.543 2.543 0 0 0-3.528.548l-1.974 2.716a2.536 2.536 0 0 0 .565 3.521l23.421 17.015a2.512 2.512 0 0 0 3.508-.562l1.974-2.716zm-43.322 74.197a2.506 2.506 0 0 0-1.262-3.317l-26.454-11.778a2.543 2.543 0 0 0-3.337 1.27l-1.367 3.064a2.537 2.537 0 0 0 1.284 3.327l26.456 11.781a2.51 2.51 0 0 0 3.312-1.28l1.368-3.067zm374.782-242.216c1.398 0 1.68.003 1.68.003a2.495 2.495 0 0 0 2.517-2.493V136.09a2.551 2.551 0 0 0-2.517-2.539s-.281-.002-1.68-.002c-1.4 0-1.678.002-1.678.002a2.552 2.552 0 0 0-2.517 2.539v28.953a2.496 2.496 0 0 0 2.517 2.493c0-.001.278-.004 1.678-.004zM952.98 374.418a2.508 2.508 0 0 0 3.427.927l25.073-14.479a2.542 2.542 0 0 0 .933-3.446l-1.675-2.904a2.537 2.537 0 0 0-3.447-.917l-25.083 14.479a2.508 2.508 0 0 0-.91 3.432l1.682 2.908zm19.402 38.396a2.51 2.51 0 0 0 3.312 1.28l26.456-11.781a2.537 2.537 0 0 0 1.285-3.327l-1.368-3.064a2.543 2.543 0 0 0-3.337-1.269l-26.453 11.779a2.506 2.506 0 0 0-1.262 3.317l1.367 3.065zm-42.712-74.546a2.516 2.516 0 0 0 3.509.562l23.42-17.016a2.535 2.535 0 0 0 .564-3.52l-1.979-2.716a2.543 2.543 0 0 0-3.528-.547l-23.417 17.019a2.506 2.506 0 0 0-.544 3.507l1.975 2.711zm68.905 156.374a2.508 2.508 0 0 0 2.972 1.941l28.328-6.019a2.543 2.543 0 0 0 1.954-2.988l-.699-3.285a2.536 2.536 0 0 0-2.995-1.936l-28.324 6.02a2.51 2.51 0 0 0-1.927 2.983l.691 3.284zm-10.934-41.605a2.51 2.51 0 0 0 3.16 1.62l27.543-8.95a2.538 2.538 0 0 0 1.626-3.175l-1.037-3.194a2.539 2.539 0 0 0-3.183-1.612l-27.54 8.95a2.51 2.51 0 0 0-1.605 3.168l1.036 3.193zm17.44 84.128a2.503 2.503 0 0 0 2.748 2.242l28.797-3.028a2.542 2.542 0 0 0 2.255-2.768l-.346-3.336a2.532 2.532 0 0 0-2.773-2.239l-28.794 3.025a2.516 2.516 0 0 0-2.233 2.765l.346 3.339zm-102.365-232.42a2.51 2.51 0 0 0 3.547.193l21.513-19.371a2.535 2.535 0 0 0 .193-3.561l-2.248-2.491a2.542 2.542 0 0 0-3.565-.176l-21.51 19.371a2.506 2.506 0 0 0-.175 3.544l2.245 2.491zm-30.286-30.533a2.505 2.505 0 0 0 3.544-.175l19.368-21.515a2.543 2.543 0 0 0-.177-3.566l-2.492-2.246a2.536 2.536 0 0 0-3.561.194l-19.371 21.514a2.51 2.51 0 0 0 .194 3.546l2.495 2.248zm-147.59-86.141a2.51 2.51 0 0 0 3.168-1.605l8.947-27.541a2.54 2.54 0 0 0-1.612-3.183l-3.19-1.036a2.54 2.54 0 0 0-3.175 1.627l-8.952 27.542a2.508 2.508 0 0 0 1.62 3.159l3.194 1.037zm-83.981-18.136a2.517 2.517 0 0 0 2.765-2.234l3.026-28.792a2.53 2.53 0 0 0-2.239-2.771l-3.342-.345a2.545 2.545 0 0 0-2.768 2.257l-3.024 28.793a2.502 2.502 0 0 0 2.242 2.748l3.34.344zm124.077 33.729a2.507 2.507 0 0 0 3.317-1.263l11.775-26.456a2.542 2.542 0 0 0-1.27-3.336l-3.063-1.366a2.537 2.537 0 0 0-3.327 1.284l-11.78 26.455a2.511 2.511 0 0 0 1.28 3.313l3.068 1.369zm-81.614-26.87a2.511 2.511 0 0 0 2.983-1.928l6.024-28.328a2.535 2.535 0 0 0-1.936-2.994l-3.287-.693a2.54 2.54 0 0 0-2.988 1.952l-6.018 28.326a2.507 2.507 0 0 0 1.942 2.971l3.28.694zm155.805 70.191a2.505 2.505 0 0 0 3.506-.544l17.017-23.422a2.544 2.544 0 0 0-.547-3.529l-2.71-1.974a2.535 2.535 0 0 0-3.521.564l-17.02 23.423a2.51 2.51 0 0 0 .564 3.506l2.711 1.976zm-24.051-55.97l-15.738 27.255a2.509 2.509 0 0 0 .927 3.427s2.673 1.525 5.08 2.948l9.731-33.63zM241.162 371.51a2.508 2.508 0 0 0-.91-3.431l-25.077-14.477a2.537 2.537 0 0 0-3.447.916l-1.68 2.904a2.54 2.54 0 0 0 .933 3.445l25.075 14.48a2.508 2.508 0 0 0 3.427-.928l1.679-2.909zm396.353 615.781a2.5 2.5 0 0 0-2.242 2.746l3.027 28.796a2.546 2.546 0 0 0 2.768 2.257l3.338-.346a2.532 2.532 0 0 0 2.24-2.772l-3.026-28.795a2.514 2.514 0 0 0-2.765-2.232l-3.34.346zm162.741-52.104a2.505 2.505 0 0 0-.928 3.425l14.483 25.077a2.541 2.541 0 0 0 3.445.933l2.902-1.681a2.537 2.537 0 0 0 .916-3.447l-14.48-25.076a2.51 2.51 0 0 0-3.432-.91l-2.906 1.679zm69.669-50.263a2.51 2.51 0 0 0-.194 3.546l19.374 21.514a2.535 2.535 0 0 0 3.561.193l2.493-2.245a2.543 2.543 0 0 0 .176-3.566l-19.373-21.512a2.505 2.505 0 0 0-3.544-.174l-2.493 2.244zm30.535-30.287a2.507 2.507 0 0 0 .176 3.545l21.514 19.369a2.541 2.541 0 0 0 3.565-.177l2.248-2.495a2.533 2.533 0 0 0-.192-3.559l-21.517-19.372a2.509 2.509 0 0 0-3.545.195l-2.249 2.494zM680.036 980.784a2.506 2.506 0 0 0-1.942 2.97l6.02 28.328a2.54 2.54 0 0 0 2.987 1.951l3.286-.695a2.536 2.536 0 0 0 1.936-2.995l-6.021-28.325a2.511 2.511 0 0 0-2.983-1.928l-3.283.694zm41.605-10.934a2.508 2.508 0 0 0-1.62 3.159l8.953 27.539a2.539 2.539 0 0 0 3.176 1.627l3.188-1.036a2.538 2.538 0 0 0 1.612-3.183L728 970.417a2.508 2.508 0 0 0-3.167-1.603l-3.192 1.036zm40.222-15.263a2.51 2.51 0 0 0-1.281 3.312l11.779 26.457a2.536 2.536 0 0 0 3.327 1.285l3.064-1.367a2.54 2.54 0 0 0 1.271-3.335l-11.777-26.455a2.507 2.507 0 0 0-3.317-1.263l-3.066 1.366zM187.38 619.735a2.502 2.502 0 0 0-2.748-2.242l-28.79 3.026a2.546 2.546 0 0 0-2.258 2.768l.345 3.341a2.53 2.53 0 0 0 2.77 2.239l28.794-3.029a2.517 2.517 0 0 0 2.234-2.766l-.347-3.337zm810.5 45.801a2.51 2.51 0 0 0 1.927 2.983l28.328 6.02a2.534 2.534 0 0 0 2.993-1.937l.695-3.283a2.54 2.54 0 0 0-1.951-2.988l-28.328-6.019a2.507 2.507 0 0 0-2.971 1.942l-.693 3.282zm6.854-42.466a2.514 2.514 0 0 0 2.232 2.765l28.794 3.027a2.535 2.535 0 0 0 2.775-2.239l.343-3.337a2.546 2.546 0 0 0-2.258-2.768l-28.791-3.026a2.502 2.502 0 0 0-2.748 2.242l-.347 3.336zm36.387-46.301a2.554 2.554 0 0 0-2.541-2.517h-28.946a2.498 2.498 0 0 0-2.495 2.517s.002.271.002 1.671c0 1.402-.002 1.686-.002 1.686a2.498 2.498 0 0 0 2.495 2.517h28.946a2.554 2.554 0 0 0 2.541-2.517s.003-.283.003-1.686a372.95 372.95 0 0 0-.003-1.671zm-70.112 170.375a2.507 2.507 0 0 0 1.262 3.317l26.456 11.779a2.541 2.541 0 0 0 3.336-1.27l1.365-3.065a2.536 2.536 0 0 0-1.285-3.327L975.687 742.8a2.51 2.51 0 0 0-3.312 1.28l-1.366 3.064zm-19.715 38.235a2.507 2.507 0 0 0 .909 3.431l25.08 14.482c1.199.692 2.75.28 3.447-.916l1.68-2.907a2.54 2.54 0 0 0-.932-3.444l-25.076-14.48a2.507 2.507 0 0 0-3.426.928l-1.682 2.906zm-23.605 35.955a2.507 2.507 0 0 0 .544 3.507l23.42 17.02a2.54 2.54 0 0 0 3.526-.548l1.976-2.715a2.534 2.534 0 0 0-.563-3.52l-23.42-17.014a2.516 2.516 0 0 0-3.51.561l-1.973 2.709zm58.91-114.285a2.509 2.509 0 0 0 1.604 3.167l27.543 8.948a2.539 2.539 0 0 0 3.183-1.612l1.037-3.192a2.538 2.538 0 0 0-1.627-3.175l-27.546-8.948a2.509 2.509 0 0 0-3.159 1.62l-1.035 3.192zM836.407 911.878a2.512 2.512 0 0 0-.562 3.508l17.017 23.419a2.537 2.537 0 0 0 3.522.565l2.713-1.974a2.543 2.543 0 0 0 .547-3.528l-17.017-23.422a2.505 2.505 0 0 0-3.506-.544l-2.714 1.976zm-516.361-29.199a2.506 2.506 0 0 0-3.545.175l-19.372 21.515a2.541 2.541 0 0 0 .177 3.565l2.493 2.242a2.535 2.535 0 0 0 3.56-.192l19.374-21.514a2.51 2.51 0 0 0-.194-3.546l-2.493-2.245zm-57.243-64.053a2.513 2.513 0 0 0-3.508-.562l-23.42 17.016a2.535 2.535 0 0 0-.564 3.521l1.974 2.713a2.543 2.543 0 0 0 3.528.548l23.423-17.016a2.504 2.504 0 0 0 .543-3.506l-1.976-2.714zm26.954 33.518a2.509 2.509 0 0 0-3.545-.195l-21.516 19.372a2.536 2.536 0 0 0-.194 3.561l2.247 2.495a2.541 2.541 0 0 0 3.565.176l21.513-19.372a2.506 2.506 0 0 0 .175-3.545l-2.245-2.492zm-50.267-69.667a2.508 2.508 0 0 0-3.427-.927l-25.073 14.476a2.542 2.542 0 0 0-.934 3.445l1.681 2.906a2.537 2.537 0 0 0 3.447.916l25.077-14.479a2.508 2.508 0 0 0 .91-3.432l-1.681-2.905zm356.741 206.874c-1.4 0-1.678-.003-1.678-.003a2.493 2.493 0 0 0-2.517 2.49v28.95a2.553 2.553 0 0 0 2.517 2.54s.278.003 1.678.003c1.398 0 1.68-.003 1.68-.003a2.552 2.552 0 0 0 2.517-2.54v-28.95a2.492 2.492 0 0 0-2.517-2.49s-.281.003-1.68.003zM220.089 744.086a2.51 2.51 0 0 0-3.312-1.281l-26.454 11.776a2.536 2.536 0 0 0-1.285 3.327l1.365 3.065a2.541 2.541 0 0 0 3.335 1.27l26.457-11.779a2.507 2.507 0 0 0 1.262-3.317l-1.368-3.061zm-15.262-40.223a2.508 2.508 0 0 0-3.158-1.621l-27.541 8.946a2.539 2.539 0 0 0-1.628 3.175l1.036 3.195a2.54 2.54 0 0 0 3.183 1.612l27.538-8.95a2.51 2.51 0 0 0 1.604-3.168l-1.034-3.189zm-10.937-41.607a2.507 2.507 0 0 0-2.971-1.942l-28.323 6.017a2.542 2.542 0 0 0-1.953 2.988l.695 3.285a2.536 2.536 0 0 0 2.995 1.936l28.325-6.023a2.51 2.51 0 0 0 1.927-2.983l-.695-3.278zM509.15 980.09a2.511 2.511 0 0 0-2.983 1.927l-6.025 28.325a2.536 2.536 0 0 0 1.936 2.995l3.286.696a2.54 2.54 0 0 0 2.988-1.952l6.021-28.326a2.507 2.507 0 0 0-1.942-2.971l-3.281-.694zm-41.517-11.276a2.51 2.51 0 0 0-3.168 1.604l-8.947 27.542a2.538 2.538 0 0 0 1.613 3.182l3.19 1.035a2.54 2.54 0 0 0 3.175-1.629l8.946-27.539a2.508 2.508 0 0 0-1.62-3.159l-3.189-1.036zm83.98 18.133a2.516 2.516 0 0 0-2.765 2.233l-3.026 28.791a2.531 2.531 0 0 0 2.24 2.772l3.334.348a2.546 2.546 0 0 0 2.768-2.258l3.029-28.794a2.502 2.502 0 0 0-2.241-2.748l-3.339-.344zm-198.268-77.045a2.503 2.503 0 0 0-3.505.543l-17.018 23.422a2.543 2.543 0 0 0 .548 3.528l2.715 1.976a2.534 2.534 0 0 0 3.52-.564l17.014-23.422a2.514 2.514 0 0 0-.562-3.509l-2.712-1.974zm74.194 43.32a2.507 2.507 0 0 0-3.317 1.262l-11.779 26.455a2.542 2.542 0 0 0 1.27 3.336l3.062 1.365a2.536 2.536 0 0 0 3.327-1.285l11.781-26.457a2.508 2.508 0 0 0-1.281-3.311l-3.063-1.365zM389.3 933.508a2.51 2.51 0 0 0-3.432.911l-14.476 25.079a2.538 2.538 0 0 0 .916 3.448l2.905 1.68a2.54 2.54 0 0 0 3.444-.932l14.478-25.079a2.508 2.508 0 0 0-.928-3.427l-2.907-1.68z"/><path fill="#31302F" d="M397.516 255.869c1.615 2.797 5.224 3.763 8.02 2.145l8.536-4.937c2.796-1.617 3.762-5.229 2.147-8.026l-31.327-54.257c-1.615-2.797-5.225-3.763-8.021-2.146l-8.533 4.934c-2.796 1.617-3.763 5.229-2.148 8.026l31.326 54.261zm193.787-124.617c-3.23.006-5.873 2.654-5.873 5.884v62.641c0 3.23 2.643 5.873 5.873 5.873h9.858c3.23 0 5.873-2.643 5.873-5.873v-62.685c0-3.23-2.643-5.868-5.873-5.861l-9.858.021zM262.84 398.437c2.797 1.615 6.409.649 8.027-2.147l4.937-8.533c1.618-2.796.652-6.405-2.145-8.02l-54.265-31.327c-2.797-1.615-6.409-.648-8.026 2.148l-4.933 8.53c-1.617 2.796-.651 6.405 2.146 8.021l54.259 31.328zm658.757-2.147c1.617 2.796 5.229 3.762 8.027 2.147l54.259-31.326c2.797-1.615 3.763-5.224 2.147-8.021l-4.932-8.532c-1.617-2.796-5.228-3.763-8.025-2.148l-54.266 31.327c-2.797 1.615-3.763 5.224-2.145 8.02l4.935 8.533zM217.576 589.252c3.23 0 5.873-2.643 5.873-5.873v-9.858c0-3.23-2.643-5.873-5.873-5.873H154.93c-3.23 0-5.873 2.643-5.873 5.873v9.858c0 3.23 2.643 5.873 5.873 5.873h62.646zm598.017-400.604c-2.796-1.617-6.406-.651-8.021 2.146l-31.326 54.257c-1.615 2.797-.649 6.41 2.147 8.028l8.533 4.938c2.796 1.618 6.404.653 8.019-2.144l31.33-54.264c1.615-2.797.649-6.409-2.148-8.026l-8.534-4.935zm-20.654 712.371c-1.615-2.797-5.225-3.763-8.021-2.147l-8.533 4.933c-2.797 1.617-3.763 5.228-2.148 8.025l31.329 54.26c1.615 2.797 5.224 3.763 8.02 2.146l8.532-4.935c2.796-1.617 3.762-5.229 2.147-8.026l-31.326-54.256zm248.463-327.498c0-3.23-2.643-5.873-5.873-5.873l-62.64-.003c-3.23 0-5.873 2.642-5.873 5.872v9.861c0 3.23 2.643 5.873 5.873 5.873h62.64c3.23 0 5.873-2.643 5.873-5.873v-9.857zM929.62 758.457c-2.797-1.615-6.41-.649-8.028 2.146l-4.938 8.531c-1.618 2.796-.653 6.404 2.144 8.019l54.263 31.329c2.797 1.615 6.409.648 8.025-2.148l4.932-8.53c1.617-2.796.651-6.406-2.146-8.021l-54.252-31.326zm-658.745 2.147c-1.618-2.796-5.23-3.762-8.027-2.147l-54.257 31.326c-2.797 1.615-3.763 5.224-2.147 8.021l4.933 8.533c1.617 2.796 5.228 3.763 8.025 2.148l54.265-31.329c2.797-1.615 3.762-5.224 2.145-8.02l-4.937-8.532zm320.428 190.625c-3.23 0-5.873 2.643-5.873 5.873v62.642c0 3.23 2.643 5.873 5.873 5.873h9.858c3.23 0 5.873-2.643 5.873-5.873v-62.642c0-3.23-2.643-5.873-5.873-5.873h-9.858zm-185.756-52.36c-2.796-1.617-6.405-.651-8.02 2.146L366.2 955.279c-1.615 2.797-.648 6.409 2.148 8.025l8.535 4.933c2.797 1.616 6.406.65 8.021-2.147l31.325-54.259c1.615-2.797.648-6.409-2.148-8.026l-8.534-4.936z"/><g opacity=".2" fill="#31302F"><path d="M441.275 316.802c3.229-1.789 7.44-.672 9.357 2.483l189.417 311.604a6.594 6.594 0 0 1-2.308 9.123l-30.884 18.054a6.646 6.646 0 0 1-9.12-2.443L416.66 338.113a6.631 6.631 0 0 1 2.546-9.083l22.069-12.228z" opacity=".4"/><path d="M441.669 315.595c3.225-1.796 7.432-.685 9.35 2.469l189.417 311.604a6.593 6.593 0 0 1-2.308 9.122l-30.884 18.054a6.632 6.632 0 0 1-9.11-2.449L417.62 336.66c-1.823-3.21-.677-7.306 2.548-9.102l21.501-11.963z" opacity=".46"/><path d="M442.063 314.388c3.221-1.804 7.424-.699 9.342 2.456l189.418 311.604a6.593 6.593 0 0 1-2.308 9.122l-30.885 18.054a6.618 6.618 0 0 1-9.1-2.454L418.578 335.208c-1.818-3.213-.671-7.317 2.55-9.121l20.935-11.699z" opacity=".52"/><path d="M442.457 313.182c3.216-1.811 7.417-.712 9.334 2.442l189.418 311.604a6.592 6.592 0 0 1-2.308 9.122l-30.886 18.054a6.606 6.606 0 0 1-9.091-2.46L419.537 333.756c-1.813-3.216-.664-7.328 2.552-9.14l20.368-11.434z" opacity=".58"/><path d="M442.85 311.975c3.212-1.818 7.409-.726 9.327 2.429l189.418 311.605a6.592 6.592 0 0 1-2.308 9.122l-30.886 18.053a6.592 6.592 0 0 1-9.081-2.465L420.496 332.304c-1.808-3.219-.658-7.34 2.554-9.159l19.8-11.17z" opacity=".64"/><path d="M443.244 310.768c3.208-1.826 7.402-.739 9.319 2.415l189.419 311.605a6.592 6.592 0 0 1-2.308 9.122l-30.887 18.053a6.579 6.579 0 0 1-9.071-2.471l-178.261-318.64c-1.802-3.221-.652-7.351 2.556-9.177l19.233-10.907z" opacity=".7"/><path d="M443.638 309.561c3.204-1.833 7.394-.753 9.311 2.402l189.419 311.605a6.593 6.593 0 0 1-2.308 9.122l-30.888 18.053a6.566 6.566 0 0 1-9.062-2.476L422.414 329.4c-1.797-3.224-.646-7.363 2.558-9.196l18.666-10.643z" opacity=".76"/><path d="M444.032 308.354c3.199-1.841 7.386-.766 9.304 2.388l189.42 311.606a6.593 6.593 0 0 1-2.308 9.122l-30.888 18.053a6.553 6.553 0 0 1-9.052-2.481L423.373 327.948c-1.792-3.228-.64-7.374 2.56-9.215l18.099-10.379z" opacity=".82"/><path d="M444.426 307.147c3.195-1.848 7.379-.779 9.296 2.375l189.42 311.606a6.593 6.593 0 0 1-2.308 9.122l-30.889 18.053a6.54 6.54 0 0 1-9.042-2.487l-176.571-319.32c-1.786-3.23-.633-7.386 2.562-9.234l17.532-10.115z" opacity=".88"/><path d="M444.82 305.94c3.191-1.856 7.371-.793 9.288 2.361l189.421 311.607a6.592 6.592 0 0 1-2.308 9.122l-30.889 18.052a6.528 6.528 0 0 1-9.033-2.492L425.29 325.044c-1.781-3.233-.627-7.397 2.564-9.253l16.966-9.851z" opacity=".94"/><path d="M445.214 304.734c3.187-1.863 7.363-.806 9.281 2.348l189.421 311.607a6.593 6.593 0 0 1-2.308 9.122l-30.89 18.052a6.514 6.514 0 0 1-9.023-2.498L426.249 323.592c-1.776-3.236-.621-7.409 2.566-9.272l16.399-9.586z"/></g><g opacity=".2" fill="#31302F"><path d="M529.118 646.006c-3.232 1.784-7.313.586-9.069-2.662l-15.784-29.197c-1.756-3.247-.524-7.32 2.737-9.05l220.603-117.055 220.603-117.055c3.261-1.73 7.364-.489 9.119 2.759l11.782 21.813c1.754 3.248.545 7.365-2.687 9.148l-218.653 120.65-218.651 120.649z" opacity=".4"/><path d="M955.941 372.728l11.805 21.863c1.559 2.887-.48 7.113-3.353 8.699L747.108 524.007l-217.29 120.721c-2.873 1.585-7.46 1.084-9.021-1.802l-15.82-29.094c-1.561-2.887-1.036-7.508 1.862-9.046l219.997-116.984 4.577-2.434L946.83 370.82c2.899-1.538 7.552-.979 9.111 1.908z" opacity=".467"/><path d="M954.556 371.71l11.829 21.914c1.364 2.526-1.506 6.862-4.02 8.249L746.447 522.658 530.519 643.449c-2.514 1.387-7.607 1.583-8.973-.942l-15.856-28.991c-1.365-2.526-1.549-7.696.987-9.042l219.391-116.913 4.568-2.435 214.816-114.474c2.537-1.346 7.74-1.469 9.104 1.058z" opacity=".533"/><path d="M953.172 370.691l11.852 21.964c1.169 2.165-2.532 6.611-4.686 7.8L745.786 521.308 531.219 642.17c-2.155 1.189-7.754 2.082-8.924-.083l-15.892-28.888c-1.17-2.165-2.061-7.885.113-9.038l218.785-116.842 4.56-2.435 214.215-114.401c2.173-1.153 7.926-1.958 9.096.208z" opacity=".6"/><path d="M951.787 369.672l11.875 22.015c.975 1.804-3.557 6.36-5.353 7.351l-213.184 120.92L531.92 640.892c-1.796.991-7.901 2.581-8.877.777l-15.927-28.786c-.975-1.804-2.573-8.073-.762-9.034l218.18-116.771 4.551-2.436 213.613-114.327c1.812-.961 8.114-2.448 9.089-.643z" opacity=".667"/><path d="M950.402 368.653l11.899 22.066c.78 1.444-4.583 6.109-6.019 6.901L744.464 518.609 532.62 639.613c-1.437.793-8.048 3.08-8.829 1.637l-15.963-28.683c-.78-1.443-3.086-8.261-1.637-9.03l217.574-116.7 4.543-2.437L941.32 370.147c1.45-.769 8.302-2.938 9.082-1.494z" opacity=".733"/><path d="M949.017 367.634l11.922 22.116c.585 1.083-5.608 5.857-6.686 6.452l-210.45 121.057-210.482 121.076c-1.077.595-8.195 3.579-8.78 2.496l-15.999-28.58c-.585-1.083-3.598-8.45-2.511-9.026l216.968-116.629 4.534-2.437L939.944 369.98c1.087-.578 8.488-3.429 9.073-2.346z" opacity=".8"/><path d="M947.632 366.615l11.946 22.167c.39.722-6.634 5.606-7.352 6.002L743.142 515.909 534.021 637.056c-.718.396-8.342 4.078-8.732 3.356l-16.035-28.478c-.39-.722-4.111-8.638-3.386-9.022L722.23 486.354l4.526-2.438 211.81-114.105c.725-.385 8.676-3.918 9.066-3.196z" opacity=".867"/><path d="M946.247 365.596l11.969 22.218c.195.361-7.66 5.355-8.019 5.553L742.481 514.56l-207.76 121.218c-.359.198-8.489 4.576-8.684 4.216l-16.07-28.375c-.195-.361-4.623-8.826-4.261-9.018l215.756-116.487 4.517-2.439 211.209-114.032c.363-.193 8.864-4.408 9.059-4.047z" opacity=".933"/><path d="M526.786 639.574l-21.242-37.287 219.66-118.855 219.658-118.855 11.993 22.268L741.82 513.21z"/></g><linearGradient id="d" gradientUnits="userSpaceOnUse" x1="-2416.845" y1="9008.608" x2="-2414.391" y2="7823.434" gradientTransform="rotate(61.105 5987.549 7196.913)"><stop offset=".073" stop-color="#31302f"/><stop offset=".131" stop-color="#373635"/><stop offset=".32" stop-color="#454542"/><stop offset=".547" stop-color="#4d4d4a"/><stop offset=".907" stop-color="#50504c"/></linearGradient><path fill="url(#d)" d="M529.954 633.995a6.565 6.565 0 0 1-9.051-2.512l-13.781-24.973c-1.784-3.232-.588-7.316 2.658-9.075l431.972-234.19c3.245-1.759 7.36-.554 9.143 2.678l6.889 12.485c1.783 3.232.629 7.39-2.565 9.241L529.954 633.995z"/><path fill="#31302F" d="M944.948 365.791c1.259 0 2.412.671 3.008 1.752l6.889 12.485c.897 1.626.297 3.786-1.309 4.716L528.272 631.091a3.174 3.174 0 0 1-1.613.438 3.22 3.22 0 0 1-2.817-1.667l-13.781-24.974a3.282 3.282 0 0 1-.275-2.525 3.278 3.278 0 0 1 1.594-1.978l431.972-234.19a3.3 3.3 0 0 1 1.596-.404zm0-3.356a6.69 6.69 0 0 0-3.196.809L509.78 597.435c-3.245 1.759-4.441 5.843-2.658 9.075l13.781 24.974a6.561 6.561 0 0 0 9.051 2.511l425.264-246.347c3.194-1.85 4.349-6.009 2.565-9.241l-6.889-12.485c-1.226-2.223-3.555-3.487-5.946-3.487z" opacity=".3"/><linearGradient id="e" gradientUnits="userSpaceOnUse" x1="7427.13" y1="-2214.951" x2="7805.177" y2="-2214.951" gradientTransform="rotate(-120.306 4844.878 1162.11)"><stop offset=".073" stop-color="#31302f"/><stop offset=".131" stop-color="#373635"/><stop offset=".32" stop-color="#454542"/><stop offset=".547" stop-color="#4d4d4a"/><stop offset=".907" stop-color="#50504c"/></linearGradient><path fill="url(#e)" d="M445.214 304.734c3.187-1.863 7.363-.806 9.281 2.348l189.421 311.607a6.593 6.593 0 0 1-2.308 9.122l-30.89 18.052a6.514 6.514 0 0 1-9.023-2.498L426.249 323.592c-1.776-3.236-.621-7.409 2.566-9.272l16.399-9.586z"/><path opacity=".4" fill="#31302F" d="M560.996 569.71c.278.836 19.295 34.958 19.295 34.958l-3.076 2.235-19.574-35.236 3.355-1.957z"/><path opacity=".2" fill="#804040" d="M516.172 694.018c11.509 6.147 25.826 1.802 31.973-9.704 5.517-10.326 2.58-22.911-6.4-29.83L776.959 214.21l-8.174-6.243-235.216 440.274c-9.489-1.075-21.586 3.478-27.101 13.809-6.149 11.506-1.799 25.82 9.704 31.968z"/><path fill="#AE1D1D" d="M526.631 698.245c11.509 6.151 25.825 1.804 31.971-9.703 5.521-10.328 2.579-22.915-6.398-29.828L787.42 218.44l-6.928-3.702-235.213 440.274c-10.742-3.616-22.836.937-28.352 11.263-6.15 11.507-1.801 25.825 9.704 31.97z"/><path fill="#AE1D1D" d="M578.613 576.141c0-8.337 6.763-15.101 15.104-15.101 8.338 0 15.099 6.765 15.099 15.101 0 8.341-6.761 15.104-15.099 15.104-8.341 0-15.104-6.763-15.104-15.104z"/><path fill="#DBDBDB" d="M593.717 582.015a5.881 5.881 0 0 1-5.875-5.874 5.881 5.881 0 0 1 5.875-5.873 5.878 5.878 0 0 1 5.87 5.873 5.878 5.878 0 0 1-5.87 5.874z"/><path fill="#999" d="M593.717 571.527a4.618 4.618 0 0 1 4.612 4.614 4.619 4.619 0 0 1-4.612 4.615 4.62 4.62 0 0 1-4.617-4.615 4.62 4.62 0 0 1 4.617-4.614zm0-2.517a7.132 7.132 0 1 0-.003 14.261 7.132 7.132 0 0 0 .003-14.261z"/><linearGradient id="f" gradientUnits="userSpaceOnUse" x1="-3041.298" y1="556.255" x2="-3021.293" y2="994.256" gradientTransform="matrix(-1 0 0 1 -2076.82 0)"><stop offset="0" stop-color="#6f6f6f"/><stop offset=".057" stop-color="#7e7e7e"/><stop offset=".273" stop-color="#b3b3b3"/><stop offset=".461" stop-color="#d9d9d9"/><stop offset=".611" stop-color="#f0f0f0"/><stop offset=".704" stop-color="#f9f9f9"/></linearGradient><path opacity=".4" fill="url(#f)" d="M892.039 870.722c38.32-38.319 68.404-82.936 89.417-132.617 21.754-51.428 32.776-106.062 32.776-162.387 0-5.441-.31-12.412-.753-19.563 12.558-2.721 22.961-5.464 30.835-7.74.542 9.056.831 18.158.831 27.303 0 60.491-11.851 119.175-35.218 174.422-22.57 53.363-54.882 101.285-96.029 142.437a453.477 453.477 0 0 1-41.84 36.969 573.825 573.825 0 0 1-5.034-35.773 424.384 424.384 0 0 0 25.015-23.051z"/><radialGradient id="g" cx="-55.177" cy="1033.434" r="381.958" gradientTransform="translate(643.977 102.765) scale(.8893)" gradientUnits="userSpaceOnUse"><stop offset="0" stop-color="#5c5c5c"/><stop offset=".079" stop-color="#666"/><stop offset=".216" stop-color="#828282"/><stop offset=".394" stop-color="#b0b0b0"/><stop offset=".604" stop-color="#efefef"/><stop offset=".637" stop-color="#f9f9f9"/></radialGradient><path opacity=".3" fill="url(#g)" d="M851.35 904.844c-28.745 22.458-60.221 40.984-94.05 55.293-51.426 21.748-106.062 32.781-162.391 32.781-56.329 0-110.963-11.033-162.387-32.781-33.829-14.309-65.309-32.835-94.053-55.293-9.248 6.046-17.816 12.421-25.613 19.093 32.64 26.507 68.679 48.197 107.63 64.669 55.245 23.367 113.931 35.218 174.424 35.218 60.497 0 119.18-11.85 174.425-35.218 38.955-16.473 74.992-38.162 107.627-64.669-7.796-6.675-16.363-13.047-25.612-19.093z"/></svg>