<svg xmlns="http://www.w3.org/2000/svg" width="512" height="512" viewBox="0 0 1200 1200"><path fill="#006d9a" d="M935.25 246.477c-10.14-14.215-107.359-139.743-322.078-139.743S215.954 278.837 215.954 550.289c0 271.544 229.026 534.778 512.631 534.778 81.113 0 160.042-20.207 194.439-38.376V817.69l-206.665-2.038 95.138-60.785 332.499 2.13-54.866 56.69v259.275s-139.763 77.037-433.508 77.037S56.004 1016.253 56.004 602.972C56.004 189.738 426.689 50 641.505 50c214.719 0 409.25 87.031 441.561 119.508 0 6.089-111.338 111.41-133.698 129.628-1.989 0-44.537-1.989-44.537-1.989 28.333-44.581 30.419-50.67 30.419-50.67z"/></svg>