<svg xmlns="http://www.w3.org/2000/svg" width="1200" height="1200" viewBox="0 0 1200 1200"><path fill="#006D9A" d="M870.186 698.083c-49.425 36.354-151.672 61.429-270.201 61.429-118.5 0-220.769-25.075-270.165-61.429-20.108 14.827-31.689 31.453-31.689 49.053 0 61.02 135.126 110.495 301.854 110.495 166.749 0 301.882-49.475 301.882-110.495.001-17.6-11.587-34.226-31.681-49.053z"/><path fill="#003E59" d="M870.186 550.812c-49.425 36.333-151.672 61.414-270.201 61.414-118.5 0-220.769-25.081-270.165-61.414-20.108 14.777-31.689 31.402-31.689 49.023 0 61.006 135.126 110.474 301.854 110.474 166.749 0 301.882-49.468 301.882-110.474.001-17.621-11.587-34.247-31.681-49.023z"/><path fill="#006D9A" d="M599.986 563.037c166.749 0 301.882-49.461 301.882-110.445 0-61.02-135.133-110.474-301.882-110.474-166.728 0-301.854 49.454-301.854 110.474 0 60.984 135.126 110.445 301.854 110.445z"/><path fill="#006D9A" d="M600 1149.997c-303.273 0-550-246.724-550-549.997S296.727 50.003 600 50.003c303.272 0 550 246.724 550 549.997s-246.727 549.997-550 549.997zm0-1067.001C314.926 82.996 83 314.923 83 600s231.926 517.004 517 517.004c285.077 0 517.006-231.926 517.006-517.004S885.078 82.996 600 82.996z"/></svg>