<svg xmlns="http://www.w3.org/2000/svg" viewBox="0 0 1200 1200" height="512" width="512"><path fill="#006d9a" d="M1033.329 539.75l116.67-105.332c-11.162-37.125-25.844-72.707-43.897-106.248l-164.008 8.376-78.8-75.533 8.535-167.116C838.288 75.844 802.706 61.162 765.581 50L651.645 176.202h-103.29L434.419 50c-37.125 11.162-72.709 25.844-106.251 43.897l8.535 167.119-78.798 75.531-164.01-8.376C75.842 361.712 61.163 397.295 50 434.419l116.67 105.332-3.431 123.597L50.001 765.58c11.162 37.125 25.841 72.707 43.895 106.248l145.575-7.434 95.976 99.243-7.275 142.466c33.541 18.053 69.124 32.735 106.248 43.897l93.629-103.709h143.904L765.581 1150c37.125-11.162 72.707-25.844 106.248-43.897l-7.275-142.466 95.976-99.243 145.572 7.434c18.053-33.541 32.735-69.124 43.897-106.248L1036.76 663.347l-3.431-123.597zM600 913.267c-173.013 0-313.265-140.255-313.265-313.268 0-173.011 140.252-313.265 313.265-313.265s313.265 140.255 313.265 313.265c0 173.013-140.252 313.268-313.265 313.268z"/><path fill="#2B2B2B" d="M611.537 767.72c-.494 0-.987 0-1.481-.019a38.876 38.876 0 0 1-32.196-19.42l-95.715-165.764c-10.745-18.585-4.366-42.371 14.238-53.116 18.528-10.726 42.333-4.385 53.116 14.238l64.81 112.249 325.225-475.726c12.073-17.693 36.258-22.249 54.027-10.156 17.731 12.13 22.287 36.315 10.137 54.046L643.619 750.787a38.886 38.886 0 0 1-32.082 16.933z"/></svg>