<svg xmlns="http://www.w3.org/2000/svg" viewBox="0 0 1200 1200" height="512" width="512"><path fill="#155c8f" d="M1150 599.996c0-225.843-166.238-413.069-382.684-447.09-10.638-28.72-38.04-49.298-70.46-49.298-41.624 0-75.369 33.743-75.369 75.369 0 41.624 33.745 75.369 75.369 75.369 27.708 0 51.664-15.12 64.759-37.397 183.654 30.984 324.143 190.72 324.143 383.047 0 192.339-140.487 352.076-324.139 383.061-13.094-22.282-37.05-37.403-64.763-37.403-41.624 0-75.369 33.743-75.369 75.369 0 41.624 33.745 75.369 75.369 75.369 32.418 0 59.818-20.576 70.458-49.292C983.76 1013.077 1150 825.839 1150 599.996z"/><g fill="#2B2B2B"><path d="M726.899 588.076c-6.242-16.61-24.844-25.001-41.344-18.758-14.996 5.631-345.324 131.945-544.027 368.386-5.217-1.143-10.599-1.833-16.159-1.833C83.743 935.87 50 969.615 50 1011.24c0 41.624 33.743 75.369 75.369 75.369 41.624 0 75.367-33.745 75.367-75.369 0-12.3-3.227-23.742-8.452-33.998 188.671-222.516 512.39-346.479 515.888-347.791 16.594-6.258 24.969-24.781 18.727-41.375z"/><path d="M828.91 521.684l-146.931-66.298c-16.249-7.278-35.164-.047-42.473 16.076-7.309 16.171-.125 35.196 16.061 42.489l117.664 53.091-53.076 117.664c-7.309 16.171-.125 35.196 16.061 42.489 4.298 1.929 8.783 2.855 13.175 2.855 12.265-.016 23.966-7.042 29.298-18.931l66.282-146.947c7.309-16.169.125-35.195-16.061-42.488z"/></g></svg>