<svg xmlns="http://www.w3.org/2000/svg" viewBox="0 0 1200 1200" height="512" width="512"><path fill="#FFF" d="M1038.637 1019.288s-49.148-730.815-84.087-777.829-204.6-177.657-204.6-177.657-445.515 17.532-541.977 50.545c-96.459 33.017-9.905 840.592-30.524 1020.172-.001 0 825.565 24.895 861.188-115.231z"/><path d="M318.43 1150c-83.615 0-140.323-1.653-141.401-1.685a13.794 13.794 0 0 1-10.017-4.766 13.79 13.79 0 0 1-3.275-10.601c7.079-61.649 1.051-204.659-5.332-356.069-6.046-143.45-12.897-306.045-10.255-432.905 4.133-198.568 30.299-234.104 55.351-242.68 97.253-33.286 527.63-50.563 545.904-51.281 3.203-.063 6.397.889 8.962 2.857 6.99 5.382 171.588 132.363 207.26 180.361 6.608 8.89 24.163 32.514 57.813 413.558 16.477 186.569 28.844 369.747 28.965 371.575a13.757 13.757 0 0 1-.395 4.326c-9.662 38.016-62.04 66.55-160.115 87.223-73.598 15.516-173.349 26.723-296.472 33.318-100.194 5.368-200.004 6.769-276.993 6.769zm-125.886-28.906c50.832 1.141 225.632 4.002 401.551-5.431 361.756-19.388 422.237-73.517 430.606-97.9-18.921-280.647-57.539-735.258-81.23-768.077-30.516-41.054-172.38-152.003-197.989-171.89-49.3 2.066-444.998 19.478-533.043 49.61-7.605 2.601-32.72 25.951-36.7 217.142-2.619 125.994 4.214 288.121 10.242 431.167 6.221 147.615 11.657 276.56 6.563 345.379z"/><path fill="#006d9a" d="M954.549 241.459l3.297 24.212s-156.89 50.181-170.73 38.691c-13.845-11.504-13.876-67.112-13.876-67.112l181.309 4.209z"/><path fill="#006d9a" d="M954.549 241.459s-165.349-.647-187.971 3.508c-22.608 4.164-16.63-181.165-16.63-181.165l204.601 177.657z"/><path d="M765.795 258.845c-4.29 0-8.423-1.563-11.891-4.546-7.776-6.693-16.23-20.956-18.121-106.062-.957-42.926.359-84.464.373-84.878a13.788 13.788 0 0 1 8.27-12.2 13.777 13.777 0 0 1 14.568 2.224l204.6 177.657a13.81 13.81 0 0 1 3.872 15.278 13.807 13.807 0 0 1-12.919 8.944h-.054c-65.962-.247-169.751.4-185.424 3.279-1.095.2-2.191.304-3.274.304zm-2.709-165.358c-.768 59.066 1.752 119.368 7.893 137.062 26.584-2.39 100.573-2.87 146.581-2.929L763.086 93.487z"/><path fill="#006d9a" d="M589.69 300.858l-354.097 25.461 3.576 64.012 378.578-22.766zm281.936 115.118l-618.95 44.975 4.246 58.837 623.881-37.971zm6.976 136.627l-618.949 44.97 4.236 58.833 623.877-37.967zm11.877 129.389L271.53 726.976l4.236 58.828 623.877-37.967zm7.727 136.119L541.44 848.756l10.283 169.491 368.444-31.926z"/></svg>