<svg xmlns="http://www.w3.org/2000/svg" viewBox="0 0 1200 1200" height="512" width="512"><path fill="#006d9a" d="M778.519 856.44H528.692c-47.634 0-86.249-38.615-86.249-86.249V520.365c0-47.634 38.615-86.249 86.249-86.249h249.826c47.634 0 86.249 38.615 86.249 86.249v249.826c.001 47.634-38.614 86.249-86.248 86.249z"/><path d="M756.26 288.138H441.936c-80.209 0-145.463 65.253-145.463 145.463v314.324c0 80.209 65.253 145.463 145.463 145.463H756.26c80.209 0 145.463-65.253 145.463-145.463V433.601c0-80.209-65.254-145.463-145.463-145.463zm71.568 459.787c0 39.455-32.113 71.568-71.568 71.568H441.936c-39.455 0-71.568-32.113-71.568-71.568V433.601c0-39.455 32.113-71.568 71.568-71.568H756.26c39.455 0 71.568 32.113 71.568 71.568v314.324zM987.94 461.456h125.113c20.404 0 36.948-16.543 36.948-36.948s-16.543-36.948-36.948-36.948H987.94c-20.404 0-36.948 16.543-36.948 36.948s16.544 36.948 36.948 36.948zm125.112 43.099H987.94c-20.404 0-36.948 16.543-36.948 36.948s16.543 36.948 36.948 36.948h125.113c20.404 0 36.948-16.543 36.948-36.948s-16.544-36.948-36.949-36.948zm0 116.995H987.94c-20.404 0-36.948 16.543-36.948 36.948s16.543 36.948 36.948 36.948h125.113c20.404 0 36.948-16.543 36.948-36.948s-16.544-36.948-36.949-36.948zm0 117.012H987.94c-20.404 0-36.948 16.543-36.948 36.948s16.543 36.948 36.948 36.948h125.113c20.404 0 36.948-16.543 36.948-36.948s-16.544-36.948-36.949-36.948zm-901.01-351.001H86.948C66.543 387.561 50 404.104 50 424.508s16.543 36.948 36.948 36.948h125.095c20.404 0 36.947-16.543 36.947-36.948s-16.544-36.947-36.948-36.947zm0 116.994H86.948C66.543 504.555 50 521.099 50 541.503s16.543 36.948 36.948 36.948h125.095c20.404 0 36.947-16.543 36.947-36.948s-16.544-36.948-36.948-36.948zm0 116.995H86.948C66.543 621.55 50 638.093 50 658.497s16.543 36.948 36.948 36.948h125.095c20.404 0 36.947-16.543 36.947-36.948s-16.544-36.947-36.948-36.947zm0 117.012H86.948C66.543 738.562 50 755.106 50 775.51s16.543 36.948 36.948 36.948h125.095c20.404 0 36.947-16.543 36.947-36.948s-16.544-36.948-36.948-36.948zm563.45 212.448c-20.404 0-36.948 16.543-36.948 36.948v125.095c0 20.404 16.543 36.948 36.948 36.948s36.947-16.543 36.947-36.948V987.958c0-20.404-16.543-36.948-36.947-36.948zm-116.995 0c-20.404 0-36.948 16.543-36.948 36.948v125.095c0 20.404 16.543 36.948 36.948 36.948s36.948-16.543 36.948-36.948V987.958c0-20.404-16.544-36.948-36.948-36.948zm-116.994 0c-20.404 0-36.948 16.543-36.948 36.948v125.095c0 20.404 16.543 36.948 36.948 36.948s36.948-16.543 36.948-36.948V987.958c-.001-20.404-16.544-36.948-36.948-36.948zm-117.013 0c-20.404 0-36.948 16.543-36.948 36.948v125.095c0 20.404 16.543 36.948 36.948 36.948s36.947-16.543 36.947-36.948V987.958c.001-20.404-16.543-36.948-36.947-36.948zm351.002-702.002c20.404 0 36.947-16.543 36.947-36.947V86.948c0-20.404-16.543-36.948-36.947-36.948s-36.948 16.543-36.948 36.948V212.06c0 20.404 16.544 36.948 36.948 36.948zm-116.995 0c20.404 0 36.948-16.543 36.948-36.947V86.948c0-20.404-16.543-36.948-36.948-36.948S621.55 66.543 621.55 86.948V212.06c0 20.404 16.543 36.948 36.947 36.948zm-116.994 0c20.404 0 36.948-16.543 36.948-36.947V86.948C578.45 66.543 561.907 50 541.503 50s-36.948 16.543-36.948 36.948V212.06c0 20.404 16.544 36.948 36.948 36.948zm-117.013 0c20.404 0 36.947-16.543 36.947-36.947V86.948C461.438 66.543 444.894 50 424.49 50s-36.948 16.543-36.948 36.948V212.06c.001 20.404 16.544 36.948 36.948 36.948z" fill="#2B2B2B"/></svg>