<svg xmlns="http://www.w3.org/2000/svg" viewBox="0 0 1200 1200"><path d="M1140.1 783.745c6.796.606 10.171-6.446 9.882-12.053-3.409-66.174-4.217-132.398-2.908-198.643.087-4.387-3.722-8.245-8.22-7.735-18.496 2.097-36.997 4.16-55.498 6.232-.881-42.974-10.396-87.953-15.337-130.103-.793-6.759-6.284-12.049-13.371-9.925-67.388 20.192-136.906 20.707-206.651 22.402-63.788 1.549-127.573 3.208-191.358 4.851-1.642.043-3.284.095-4.927.138-1.984-41.696-4.908-83.245-8.156-124.846 15.813-.719 31.621-1.547 47.409-2.589 29.017-1.917 58.071-4.237 86.963-7.582 13.948-1.616 29.081-1.844 36.443-16.055 6.55-12.644 3.885-35.46 4.384-48.837 1.085-29.06 2.108-58.124 3.161-87.185 1.091-30.117 2.39-58.131-33.426-61.009-51.272-4.12-104.324-1.36-155.727-.82-22.179.233-44.371.571-66.56 1.043-2.435-1.146-5.504-1.093-8.166.162-27.499.64-54.992 1.546-82.448 2.943-9.593.488-11.969 9.442-9.054 16.378-1.372 40.238-3.404 80.903-3.513 121.345-1.25 1.858-2.57 3.656-3.796 5.534-3.184 4.877-.312 9.539 3.902 10.632.027 2.353.023 4.71.066 7.061-.939 1.197-1.924 2.348-2.856 3.551-3.729 4.815-1.003 10.078 3.301 11.69l.006.189c-4.802 4.334-9.6 8.672-14.394 13.013-7.945 7.193-.332 21.188 8.882 13.752 2.62-2.114 5.286-4.166 7.916-6.269 2.759 9.406 7.92 15.253 14.677 18.963 2.18 5.033 7.782 6.756 12.232 4.324 13.433 2.737 30.16 1.564 47.342 1.75 31.328.34 62.672-.321 93.987-1.605-.697 41.662-.206 83.252 1.221 124.919-126.168 3.371-252.273 7.777-378.396 12.391-5.83.213-4.349 8.584.793 8.546 126.072-.933 252.118-1.947 378.18-3.897.726 20.932 1.449 41.864 2.166 62.797.423 12.346-2.091 31.115 1.551 44.603-29.909 3.517-59.804 7.135-89.465 12.411-5.75 1.023-3.534 9.469 1.691 9.292 1.523-.052 3.042-.156 4.565-.218-1.294 1.989-2.029 4.501-1.792 7.548 2.19 28.158 4.044 56.385 6.841 84.491 1.31 13.157 1.165 30.938 15.066 37.972 15.312 7.749 43.199-1.926 59.422-2.898 27.717-1.662 55.262-.438 82.843 2.497 5.24.558 10.721-4.72 10.539-9.972-1.655-47.848-2.367-95.73-3.86-143.584-.142-4.559-4.352-8.042-8.864-7.362-20.026 3.018-40.131 5.476-60.248 7.852 1.732-12.504-.672-26.596-1.154-38.679-.889-22.333-1.88-44.661-2.861-66.991 5.9-.095 11.799-.162 17.699-.262 66.924-1.133 133.846-2.32 200.768-3.603 59.639-1.143 119.882-2.271 177.976-16.758 3.666 39.086 5.478 80.001 13.01 118.435-39.064 4.409-78.103 9.017-117.078 14.135-5.574-8.391-20.101-8.913-20.534 2.684-1.144.156-2.29.292-3.434.449-6.481.894-3.079 9.492 2.441 9.134.428-.027.855-.065 1.282-.092 1.625 41.198 3.494 82.386 5.337 123.575.923 20.639-1.189 46.343 19.845 57.828 21.168 11.559 52.371 2.486 74.616.813a633.977 633.977 0 0 1 17.012-1.024c.198 27.463 3.63 56.019 7.816 83.125-37.086 4.88-74.158 9.821-111.095 16.096-4.59.78-4.01 4.919-1.458 7.403-2.608 1.905-4.408 5.007-4.313 9.437.621 29.148 1.323 58.291 2.118 87.434.666 24.434-4.794 59.888 4.074 82.997 4.571 11.911 12.92 13.383 24.929 13.752 27.69.854 55.813-2.165 83.443-3.72a25243.17 25243.17 0 0 1 42.584-2.35c11.287-.614 27.048 1.356 37.378-3.839 11.845-5.957 11.287-16.369 11.783-28.766 2.402-60.083 4.317-120.246 5.317-180.369.077-4.637-3.931-10.588-9.245-9.795-22.855 3.412-45.741 6.473-68.628 9.49-2.059-26.754-5.178-55.181-11.52-81.407 28.501-.794 56.997.247 85.452 2.783zM538.573 136.973c-3.042 2.905-6.12 5.787-9.009 8.791.196-2.559-1.055-5.038-3.122-6.422l1.628-1.26c.355-.275.646-.564.911-.856 3.197-.087 6.395-.168 9.592-.253zm224.734 128.078c-7.451 8.243-15.669 15.106-24.698 20.879 4.644-5.9 9.504-11.591 14.687-16.974a590.127 590.127 0 0 0 20.583-16.188c-.356 1.147-.775 2.28-1.147 3.423a9.496 9.496 0 0 0-3.924 2.396c-2.083 2.09-3.86 4.259-5.501 6.464zm16.742-57.962l-.152.121a657.586 657.586 0 0 0-10.061 6.072 227.976 227.976 0 0 0 5.796-12.609c2.238-1.961 4.451-3.959 6.669-5.948.314 3.562.634 7.122.828 10.685-.361.154-.717.29-1.091.507-.667.39-1.314.802-1.979 1.195l-.01-.023zm-75.991 52.716c-.385.313-.761.638-1.145.953.276-.459.547-.919.821-1.38.107.143.217.284.324.427zm22.445-17.33a6.919 6.919 0 0 0-.952-1.517c6.247-4.591 12.453-9.243 18.564-14.037-1.254 1.955-2.609 3.84-3.927 5.75a611.451 611.451 0 0 0-13.685 9.804zm25.712-50.577c4.702-3.632 9.333-7.365 13.991-11.059-.325.964-.655 1.926-.994 2.885a866.402 866.402 0 0 0-12.997 8.174zm-79.929 85.813c.048-.266.084-.533.132-.799.229-.221.464-.443.697-.666l-.829 1.465zm-132.707-96.869l-2.616 12.766-8.474 6.921c-.249-2.9-.475-5.802-.732-8.701a960.096 960.096 0 0 1 9.095-10.166c.908-.28 1.812-.572 2.727-.82zm67.339 28.41l.02-.143.272-.212c-.098.117-.193.237-.292.355zm-75.66 12.194c-.317.24-.631.484-.947.725l-.029-.345c.373-.38.755-.75 1.13-1.129l-.154.749zm-28.25-22.013c-.281.331-.569.655-.849.986l-.122-.809c.327-.046.652-.098.971-.177zm146.26-17.554c1.269-1.747 2.545-3.488 3.795-5.252 3.068-1.971 6.118-3.969 9.196-5.925.016.518.037 1.037.051 1.554a982.203 982.203 0 0 0-13.042 9.623zm-50.778 87.374c-.941.801-1.876 1.61-2.817 2.413.039-.248.085-.494.125-.74l2.692-1.673zm-22.243-88.891c4.677-3.792 9.357-7.579 14.034-11.373l-1.839 6.281c-4.1 1.605-8.169 3.29-12.195 5.092zm-59.896 108.079l.02.321c-2.557 2.235-5.147 4.433-7.694 6.681.178-.664.339-1.331.512-1.995 2.387-1.671 4.77-3.346 7.162-5.007zm-11.56 20.364c.126.134.272.249.408.374-.243.202-.491.398-.733.6.105-.325.222-.649.325-.974zm73.526-27.02a181.565 181.565 0 0 0-.751 5.388c-1.147.993-2.294 1.985-3.439 2.978a206.39 206.39 0 0 0 1.991-7.001l2.199-1.365zm101.361-37.047c-.966.833-1.905 1.664-2.85 2.497.023-.185.047-.371.069-.557.93-.643 1.852-1.296 2.781-1.94zm63.487 10.103c1.373-.979 2.756-1.946 4.126-2.93-1.859 1.783-3.738 3.549-5.534 5.392-.483.349-.967.696-1.451 1.044.972-1.154 1.912-2.333 2.859-3.506zm-113.043 26.28c.09.336.165.676.257 1.011-.971.513-1.953 1.005-2.926 1.514.893-.838 1.773-1.69 2.669-2.525zm15.857-13.405c3.678-2.462 7.333-4.957 11-7.436-.393 2.606-.837 5.207-1.271 7.808a704.801 704.801 0 0 1-8.412 4.809c-.448-1.726-.917-3.447-1.317-5.181zm34.814-108.254c-.017-.096-.037-.191-.053-.288a2177.194 2177.194 0 0 1 41.317-25.075c3.434-.089 6.882-.187 10.345-.292-18.428 5.899-35.392 15.067-51.609 25.655zm3.429-23.549c.375-.48.697-.978.95-1.497l1.547-.008c-.834.5-1.665 1.003-2.497 1.505zm-85.967 5.844l-.129.44c-8.368 6.355-16.624 12.833-24.693 19.517-1.338-1.206-3.098-2.031-5.325-2.134-1.062-.049-2.081-.027-3.125-.047.403-3.038.803-6.076 1.216-9.114a2912.37 2912.37 0 0 1 14.085-14.486c7.548-.179 15.097-.338 22.645-.496-2.07 1.298-3.815 3.391-4.674 6.32zm-109.771 5.322c-3.193-.863-6.847-.112-9.249 2.133-.089-3.546-.162-7.092-.256-10.639 7.083-.185 14.161-.381 21.242-.572-3.913 3.026-7.826 6.051-11.737 9.078zm89.881 164.892a37.835 37.835 0 0 0 1.08 3.365c-2.187.049-4.374.112-6.561.156 1.827-1.174 3.655-2.346 5.481-3.521zm29.038-.411a724.408 724.408 0 0 0 27.932-14.022c1.92 5.241 4.056 10.436 6.504 15.561-11.94.595-23.883 1.103-35.832 1.503.467-1.014.94-2.026 1.396-3.042zm78.242-1.099c8.329-2.032 16.217-6.456 23.876-11.371-1.044 1.708-2.143 3.354-3.154 5.1-.947 1.635-1.192 3.254-.983 4.75-4.556.373-9.109.773-13.668 1.115-2.022.152-4.047.261-6.071.406zm50.242-4.231c6.336-3.531 12.307-7.517 17.988-11.896.032 2.785.196 5.621.642 8.57.111.735.378 1.369.677 1.976-4.083.137-7.743.245-10.469.518-2.945.295-5.893.549-8.838.832zm33.883-2.19c2.304-4.362 4.444-8.767 6.509-13.193-.262 1.216-.446 2.433-.722 3.649-.895 3.939.469 6.76 2.722 8.331-2.737.539-5.603.931-8.509 1.213zm21.686-6.286c2.176-6.471 4.04-12.968 5.733-19.479.019 6.333-.383 12.131-1.901 15.108-.872 1.712-2.197 3.145-3.832 4.371zm7.612-147.683c.492 2.055.679 4.311.704 6.654-1.664-1.221-3.897-1.519-6.108-1.076-.794-4.076-1.533-8.153-2.478-12.228-1.771-7.639-9.772-7.015-13.941-2.501-.266.062-.528.099-.797.189-27.633 9.191-51.806 25.441-74.767 43.314-2.294.267-4.61.793-6.934 1.465 26.228-17.331 52.568-34.493 79.118-51.34 1.223.13 2.46.218 3.674.379 14.713 1.943 18.158 1.052 21.529 15.144zm-141.554-15.514a1663.214 1663.214 0 0 0-44.149 28.42c.665-4.77 1.328-9.54 1.994-14.31 3.358-2.725 6.722-5.442 10.08-8.168 2.008-1.63 3.022-3.589 3.281-5.515 9.596-.161 19.194-.323 28.794-.427zM521.619 317.004l14.906-9.259c.058 3.061.063 6.118.165 9.182-5.061.177-10.102.231-15.071.077zm83.68 395.516c-4.621 1.323-9.008.609-13.159-2.143-8.411-.329-11.251-4.892-8.518-13.689-2.581-8.042-1.358-19-1.961-27.346-1.429-19.764-2.973-39.518-4.509-59.272-.183-2.348-.93-4.217-1.986-5.722 44.61-2.798 89.036-8.751 133.569-12.498.15 40.203 1.12 80.415 1.069 120.615-14.794-1.598-29.619-2.674-44.52-2.901-19.873-.304-40.344 3.818-59.985 2.956zm512.295 337.903c-9.394 8.356-53.798 4.16-64.578 4.71-20.056 1.023-40.113 2.177-60.18 2.961-7.271.283-23.459 4.032-29.78.654-6.32 1.62-7.461-1.026-3.421-7.938l-.356-16.538c-.984-45.598-1.985-91.193-3.261-136.785-.104-3.704-1.583-6.522-3.738-8.467 57.473-5.07 114.886-12.048 172.468-15.427-2.003 37.765-3.277 75.56-4.71 113.351-.363 9.592 3.718 57.998-2.444 63.479zM948.843 639.399c.728 2.541 1.475 5.079 2.178 7.624-1.017 1.164-1.564 2.475-1.719 3.785-.148-3.804-.309-7.606-.459-11.409zm50.229 21.151a481.89 481.89 0 0 1 15.284-10.27c.465.969.908 1.943 1.35 2.919-5.49 2.809-11.075 5.381-16.64 7.442.002-.03.003-.061.006-.091zm64.835-32.745c.066.105.125.213.191.317l-13.603 6.511a93.935 93.935 0 0 1 1.435-3.988 268.241 268.241 0 0 0 11.977-2.84zm-19.855 60.575a152.886 152.886 0 0 0-1.142-7.308c.01-.22.016-.44.027-.66 1.984-1.248 4.024-2.409 6.027-3.626a292256.59 292256.59 0 0 1 30.649-15.427c.831 2.492 1.635 4.995 2.359 7.524a1014.848 1014.848 0 0 0-37.92 19.497zm.43-26.431c.122-.976.284-1.933.421-2.902a892.379 892.379 0 0 1 27.384-16.036c.428.903.799 1.829 1.209 2.739-9.883 5.052-19.513 10.522-29.014 16.199zm-13.652-21.827c-.153.643-.301 1.289-.447 1.936-.208-.438-.436-.871-.648-1.309.363-.213.733-.414 1.095-.627zm-7.905 33.028l-1.98.997c.636-.416 1.282-.817 1.92-1.231.021.077.039.156.06.234zm2.266 18.984l-.005.178-.29.018c.097-.068.197-.129.295-.196zm70.992-39.117l1.339-.674-.231 3.909c-.355-1.083-.734-2.157-1.108-3.235zm-6.057-15.308c-.536-1.192-1.104-2.373-1.668-3.555 2.815-1.506 5.62-3.026 8.453-4.503.062 1.6.164 3.204.293 4.81a527.365 527.365 0 0 0-7.078 3.248zm-67.236 92.045c.712-.354 2.11-.69 2.11-1.027v.111c0 .308-1.408.605-2.11.916zm22.015-9.661a239099.52 239099.52 0 0 0 43.596-18.944c.172 1.309.373 2.61.526 3.922a616.354 616.354 0 0 0-44.179 15.615c.016-.197.043-.396.057-.593zm-65.241-39.547c.693-.057 1.389-.093 2.077-.176.019.821.04 1.641.069 2.461-.569.406-1.136.815-1.703 1.222-.142-1.138-.29-2.308-.443-3.507zm-31.741-64.138l-.004.003v-.012l.004.009zm138.224 117.93c2.244-.949 3.863-2.905 4.733-5.093.132 3.114.23 6.227.291 9.337-8.642 1.468-17.314 2.762-25.994 3.992a455.033 455.033 0 0 0 20.97-8.236zm41.761 12.35c.982-.781 1.888-1.595 2.665-2.461.228 6.314.458 12.628.734 18.943-1.807-.152-3.614-.313-5.421-.453.707-1.171 1.204-2.574 1.338-4.285.307-3.911.47-7.829.684-11.744zm1.085-92.841a7.3 7.3 0 0 0-.8-1.055c-1.854-11.974-3.923-23.91-6.126-35.817 3.008-1.524 4.493-4.151 4.787-6.8 3.764-4.533 3.911-12.298-2.134-13.937 4.073-4.834.894-13.22-6.302-12.167-.007-.032-.032-.06-.04-.092 3.91-.36 7.82-.723 11.73-1.081-.757 23.655-1.087 47.304-1.115 70.949zm-179.604-.859a6.563 6.563 0 0 0 1.885 3.36c-.604.746-1.121 1.537-1.657 2.32-.072-1.894-.154-3.787-.228-5.68zm10.747 45.808c-3.205 2.433-6.44 4.82-9.616 7.299-.139.108-.232.261-.363.378.032-5.405.163-10.643.26-15.487 2.638 3.066 5.966 5.649 9.719 7.81zm-6.864 21.088c4.39.311 8.937-.223 13.562-1.365.028.183.051.367.079.551-1.33 1.193-2.708 2.317-4.028 3.526-2.725 2.495-5.407 7.74-2.092 11.074.147.147.306.24.454.381-.368.566-.749 1.12-1.073 1.719-1.254 2.313-1.354 5.468-.329 7.989l-.874.172c-1.585.314-2.915 1.158-3.992 2.261-2.929-7.9-4.161-17.423-4.596-27.166.815.44 1.738.777 2.889.858zm102.574 40.616c3.112-.402 6.231-.735 9.339-1.165 7.711-1.069 17.578-1.608 27.439-2.628 3.384 4.819 12.24 4.189 15.417-1.158.077.766.136 1.533.213 2.299a9.902 9.902 0 0 0 1.151 3.777c-17.825-1.021-35.67-1.492-53.559-1.125zM950.829 598.384a8.535 8.535 0 0 0-3.496 3.429c-.046-1.055-.081-2.111-.127-3.166l3.623-.263z"/><path d="M442.838 883.474c7.989 7.534 20.536-3.495 13.716-12.174-21.88-27.848-54.702-43.504-83.694-62.655-29.766-19.663-52.651-50.009-87.437-60.519 30.596-8.107 61.325-14.906 93.408-11.695 5.583.559 10.25-4.735 10.532-9.986 1.881-35.038 1.299-70.063-2.888-104.927-1.509-12.565-.437-36.154-13.5-42.876-7.88-4.055-21.182.151-29.55 1.133-17.624 2.068-35.235 4.377-52.777 7.051-4.247.648-8.49 1.317-12.73 2.004-2.005-10.875-6.107-21.745-7.954-32.529 1.629-13.107-.467-26.742-2.292-39.76-.164-1.173-.3-2.369-.44-3.564.123-4.915.36-9.836.707-14.766.174-2.467-1.746-4.147-4.065-4.88-1.572-4.832-4.01-9.21-8.225-12.594-1.337-1.073-3.728-.89-4.488.818-5.117 11.497-.567 22.949.899 35.207.342 2.865.54 5.808.698 8.778-1.555 22.316-.443 47.519 8.393 66.146-22.495 4.005-44.822 8.804-66.83 14.995-2.74-.279-5.433.361-7.504 2.171-.934.277-1.874.528-2.807.812-4.142 1.257-3.503 5.325-1.065 7.808-9.701 45.201-16.897 90.711-20.803 136.792-.667 7.871 4.658 13.535 12.363 13.791 22.585.752 44.512-3.006 66.215-8.188-11.735 20.741-22.257 42.324-33.951 63.03-11.443 20.262-25.332 39.926-36.547 60.548-2.825-1.645-6.937-1.591-10.334 1.482-1.116 1.009-2.269 1.966-3.39 2.968-4.191.586-8.228 1.125-11.991 1.537-29.86 3.279-60.025 7.735-88.902 16.107-4.632 1.343-2.229 6.336 1.168 8.164a14.072 14.072 0 0 0-.582 3.034c-2.358 30.299-3.176 60.767-4.381 91.131-.859 21.646-5.514 45.293 4.625 65.236 2.486 4.89 7.29 7.193 12.592 6.721 28.842-2.571 57.683-5.156 86.523-7.762 24.813-2.242 54.687-.507 78.621-7.262 9.551-2.696 13.126-6.58 15.157-15.99 4.921-22.793-.872-52.784-1.45-76.133a10642.2 10642.2 0 0 0-1.154-43.388c-.28-9.725 1.806-24.712-1.679-33.805-2.907-7.583-5.007-9.164-13.476-11.14-4.68-1.092-9.77-1.693-15.119-1.934-1.927-.955-4.229-1.158-6.421-.109-6.776.031-13.844.526-20.94 1.264 8.577-13.37 16.097-27.584 23.806-41.133 15.797-27.766 32.966-56.647 44.309-86.742 7.202-1.905 14.394-3.858 21.585-5.798.094 1.533.838 3.216 2.025 3.894 32.201 18.395 54.553 52.308 85.857 73.138 26.813 17.843 52.63 34.352 76.167 56.549zM228.09 945.562a11.407 11.407 0 0 0-4.97 2.434c-1.076-3.8-2.278-7.33-3.6-10.536.948-1.072 1.893-2.162 2.842-3.222 2.461-2.748 2.843-5.647 1.99-8.054 1.209-1.123 2.403-2.261 3.617-3.38.811 6.982.608 14.877.121 22.758zm-153.247 57.78c1.268 3.783 2.625 7.911 4.174 12.147-2.437 4.239-4.582 8.644-6.278 13.289-.194.531-.205 1.035-.288 1.551.391-9.114 1.458-18.494 2.392-26.987zm67.421-76.622c6.585-6.654 13.079-13.394 19.258-20.431.15.199.308.391.488.574a756.094 756.094 0 0 1-19.746 19.857zm-69.878 105.777c.081.639.18 1.264.41 1.841-.161.277-.318.556-.477.833.012-.886.04-1.78.067-2.674zm20.421-101.631c-1.837-2.109-3.763-4.128-5.858-5.971-2.437-2.145-5.455-3.058-8.258-2.633.001-.725.029-1.451.027-2.176-.006-2.774-.829-5.174-2.137-7.149 11.626-1.087 23.23-2.304 34.834-3.49a200.495 200.495 0 0 0-18.608 21.419zm-1.54 116.454a7.98 7.98 0 0 0 1.506 6.613c-3.222.276-6.445.547-9.667.823 2.722-2.477 5.439-4.959 8.161-7.436zm17.729 4.614c.738.189 1.453.306 2.17.431l-3.201.273c.344-.234.688-.468 1.031-.704zm78.043-49.471c.368-.819.732-1.64 1.1-2.459-.363 2.555-.655 5.127-.975 7.692a106.141 106.141 0 0 1-.841-3.647c.24-.535.474-1.046.716-1.586zm16.292 42.349a384.414 384.414 0 0 0 3.096-15.817c2.307.859 5.063.511 7.472-.677.377 1.265.705 2.538 1.089 3.802.499 1.641 1.369 2.859 2.446 3.739.032.625.1 1.238.128 1.863.054 1.101.118 2.196.171 3.299a8.44 8.44 0 0 0 .47 2.365c-4.84.894-9.874 1.369-14.953 1.648.018-.081.063-.138.081-.222zm11.911-140.439c-1.953.842-3.703 2.424-4.874 4.796a9.772 9.772 0 0 0-6.087-1.455c1.578-1.507 3.147-3.022 4.728-4.526 2.201.239 4.3.615 6.233 1.185zm-33.03 1.81c.197-.706.276-1.398.22-2.061.699-.057 1.428-.122 2.148-.186-.794.743-1.578 1.498-2.368 2.247zm-58.342 145.1c8.602-3.183 15.292-10.996 20.352-19.291-.431 1.252-.926 2.465-1.342 3.727-2.053 6.217 2.73 15.035 10.281 11.076 9.234-4.842 15.551-11.173 20.604-18.58 2.845 6.75 6.52 12.79 11.173 17.866-20.358 1.715-40.712 3.466-61.068 5.202zm218.163-455.1c29.459-2.169 26.389 25.09 27.952 47.715 1.625 23.534 1.507 47.066.251 70.594-63.171-3.237-121.604 28.104-184.315 30.258 4.839-41.235 11.31-82.156 20.117-122.767.45-2.074.328-3.992-.14-5.749 21.395-3.842 42.75-7.752 64.176-11.195 1.193 1.285 2.396 2.56 3.738 3.693 2.011 1.695 4.336.53 4.732-1.907.171-1.051.175-2.105.262-3.158 20.951-3.221 41.986-5.919 63.227-7.484z"/><path d="M534.578 887.237c-.026-5.058-4.765-8.679-9.563-8.214-35.997 3.497-71.702 8.706-107.106 16.143-10.066 2.114-30.793 3.775-46.504 9.091-6.665-4.72-17.399-3.049-17.55 7.528l-.05 3.507c-.414.594-.868 1.17-1.187 1.805-.947 1.886-.26 3.881 1.086 5.352-.349 24.424-.697 48.847-1.041 73.27-.321 22.766-5.976 52.277-.072 74.25 8.329 31.002 52.345 20.013 76.127 17.546 26.901-2.789 53.889-8.13 79.684-16.306 12.955-4.106 21.243-6.967 24.025-21.156 4.634-23.638 1.034-51.708 1.323-75.82.346-28.994.977-57.998.828-86.996zm-83.705 161.981l12.76-8.239c.547.916 1.085 1.842 1.643 2.747a910.654 910.654 0 0 1-16.905 8.567 65.168 65.168 0 0 0 2.502-3.075zm-29.163-53.541c3.388-3.394 6.628-6.57 9.532-9.446a143.763 143.763 0 0 1 4.188 5.819c-.808 2.05-1.637 4.09-2.399 6.161a348.426 348.426 0 0 1-8.708 9.409 132.718 132.718 0 0 0-2.613-11.943zm45.573-11.618a654.416 654.416 0 0 1-6.859 14.893 447.446 447.446 0 0 0-2.77-4.844c3.241-3.321 6.419-6.699 9.629-10.049zm-20.679 26.282c.857 1.53 1.712 3.061 2.556 4.601-1.581.432-3.04.873-4.416 1.303.61-1.973 1.206-3.95 1.86-5.904zm-6.722 23.68c.636-.146 1.27-.28 1.907-.432a89.207 89.207 0 0 1-2.669 3.865c.254-1.144.494-2.294.762-3.433zm-7.123-73.815c-.504-.504-1.039-.986-1.554-1.481 1.488-1.1 3.023-2.283 4.599-3.54.381.129.757.269 1.138.396-1.409 1.561-2.804 3.101-4.183 4.625zm53.67 91.513a834 834 0 0 0 5.162-2.811c-.074 1.398-.143 2.796-.22 4.195-.099-.035-.155-.097-.257-.131a45.74 45.74 0 0 0-4.685-1.253zm-13.411-148.2a6.12 6.12 0 0 0-.067-1.681 911.36 911.36 0 0 1 2.843-.282c-.928.651-1.851 1.308-2.776 1.963zm-63.302 24.332c-1.493-.655-2.993-1.294-4.48-1.962 3.31-1.018 6.621-2.034 9.931-3.051-1.82 1.666-3.632 3.344-5.451 5.013zm-26.59-11.645c-2.408.032-4.867 1.388-6.626 3.348l.059-3.145c2.815-.645 5.756-1.194 8.685-1.668-.71.482-1.41.978-2.118 1.465zm15.268 151.238c.222.581.403 1.171.628 1.751-.748.022-1.467.017-2.195.019a8.558 8.558 0 0 0 1.567-1.77zm53.912-163.242c-2.616 1.82-5.233 3.638-7.849 5.459-.262-1.599-1.522-3.049-3.173-3.999.943-.135 1.882-.303 2.825-.434 2.73-.381 5.465-.678 8.197-1.026zm-26.757 3.878c-10.814 3.599-21.632 7.187-32.449 10.778 2.29-2.068 4.574-4.144 6.851-6.226a89.436 89.436 0 0 0 4.103-.677 742.078 742.078 0 0 1 21.495-3.875zm-52.054 144.399c1.403 1.401 3.386 2.265 5.352 2.457 1.519 3.75 3.045 7.498 4.763 11.217.284.614.672 1.114 1.052 1.62-.605-.188-1.223-.365-1.77-.597-6.287-2.658-8.687-8.13-9.397-14.697zm136.503-10.462c3.628-37.068 3.57-74.199 2.881-111.445a83.613 83.613 0 0 0 2.481-4.563c-.568 22.422-.861 44.86-1.364 67.268-.306 13.597 3.21 35.095-3.998 48.74zm-270.68-391.785c-8.572 2.191-7.304 12.696 1.7 12.29 33.246-1.497 70.059-5.336 101.408-17.143 4.354-1.641 2.64-8.172-1.649-8.629-32.651-3.481-69.919 5.419-101.459 13.482zm98.103 17.566c-36.443-.178-75.08 11.717-110.834 18.515-7.459 1.418-4.803 12.915 2.563 11.676 36.416-6.126 76.436-9.027 111.35-21.413 5.503-1.951 1.319-8.756-3.079-8.778zm330.475-30.579c5.662-2.452 2.757-9.916-2.978-9.609-12.446.666-24.686 4.689-37.031 6.556-14.199 2.148-28.485 3.445-42.829 4.051-5.821.247-3.605 9.118 1.448 9.209 25.942.465 57.155.29 81.39-10.207zm3.447 17.578c-22.668-2.594-49.352 5.66-71.287 11.101-7.331 1.819-3.701 11.633 2.997 10.15 22.887-5.068 47.578-5.601 69.982-11.96 5.742-1.63 3.516-8.696-1.692-9.291zm395.566 275.253c6.111-1.593 6.42-9.625.11-11.239-26.123-6.682-61.231 5.187-85.727 14.059-9.13 3.307-4.392 15.594 4.752 12.687 15.116-4.806 30.773-8.614 46.471-10.877 11.5-1.657 23.132-1.693 34.394-4.63zm29.013 37.266c-32.079-4.107-66.443 6.294-99.276 6.187-9.539-.031-13.768 15.176-2.929 15.677 32.51 1.505 76.239 4.033 103.945-15.653 2.15-1.528.775-5.889-1.74-6.211z"/></svg>