<svg xmlns="http://www.w3.org/2000/svg" width="512" height="512" viewBox="0 0 1200 1200"><path fill="#155c8f" d="M601.2 617.477v-5.769a2.42 2.42 0 0 0-2.422-2.42 2.42 2.42 0 0 0-2.42 2.42v5.769h-3.832v16.053h.359a5.97 5.97 0 0 0 3.473 4.987v169.794c0 3.408-.906 5.979-2.69 7.642-2.811 2.618-7.059 2.347-7.287 2.336h-7.575a5.98 5.98 0 0 0-5.034-3.561v-.359H557.72v12.581h16.052v-.359a5.968 5.968 0 0 0 4.983-3.464l7.427-.003c.052.004.321.025.757.025 1.806 0 6.441-.346 9.984-3.611 2.839-2.615 4.278-6.394 4.278-11.227V638.557a5.972 5.972 0 0 0 3.547-5.026h.359v-16.053H601.2zm70.887 15.681h.361v-16.054h-3.834c-.104-1.243-1.131-2.22-2.399-2.22s-2.297.977-2.401 2.22h-3.948v16.054h.359a5.976 5.976 0 0 0 3.568 5.036V858.33a5.978 5.978 0 0 0-3.568 5.038h-.359v16.052h3.927v3.828a2.422 2.422 0 1 0 4.842 0v-3.828h3.813v-16.052h-.361a5.97 5.97 0 0 0-3.452-4.977V638.135a5.973 5.973 0 0 0 3.452-4.977zm-358.6-19.114c-.428-.383-.988-.624-1.61-.624s-1.182.241-1.61.624h-5.154v16.054h.359a5.961 5.961 0 0 0 3.986 5.191l.002 18.022c.007.062.382 6.551-3.758 10.973-2.582 2.753-6.459 4.152-11.528 4.152H170.972v-.006h-8.642c-6.46 0-11.528 1.915-15.059 5.687-4.679 4.995-5.083 11.667-5.083 13.773 0 .401.013.635.018.665v101.831a5.968 5.968 0 0 0-3.036 4.76h-.359V811.2h4.206c.428.383.988.624 1.609.624s1.182-.241 1.61-.624h5.155v-16.054h-.359a5.963 5.963 0 0 0-3.984-5.191l-.004-101.557c-.007-.062-.382-6.551 3.758-10.973 2.582-2.753 6.459-4.152 11.528-4.152h5.601v.006h126.244c6.46 0 11.528-1.915 15.059-5.687 4.679-4.995 5.083-11.667 5.083-13.773 0-.401-.013-.636-.018-.665v-18.296a5.968 5.968 0 0 0 3.036-4.76h.359v-16.054h-4.207zm510.556 0a2.406 2.406 0 0 1 1.61-.624 2.41 2.41 0 0 1 1.611.624h5.154v16.054h-.359a5.959 5.959 0 0 1-3.987 5.191l-.002 18.022c-.007.062-.381 6.551 3.758 10.973 2.582 2.753 6.459 4.152 11.528 4.152h202.8v-.006h8.641c6.46 0 11.528 1.915 15.059 5.687 4.679 4.995 5.083 11.667 5.083 13.773a8.1 8.1 0 0 1-.018.665v76.133a5.97 5.97 0 0 1 3.036 4.76h.359v16.054h-4.206c-.429.383-.987.624-1.609.624s-1.182-.241-1.611-.624h-5.154v-16.054h.359a5.963 5.963 0 0 1 3.984-5.191l.005-75.86c.007-.062.381-6.551-3.758-10.973-2.582-2.753-6.459-4.152-11.528-4.152h-5.6v.006H843.356c-6.46 0-11.528-1.915-15.059-5.687-4.679-4.995-5.082-11.667-5.082-13.773 0-.401.013-.636.018-.665v-18.296a5.97 5.97 0 0 1-3.036-4.76h-.359v-16.054h4.205z"/><g fill="#155c8f"><path d="M714.67 813.668c-2.652 0-6.483-.552-9.737-3.174-3.923-3.16-5.909-8.356-5.909-15.446V606.689c0-1.339 1.084-2.423 2.42-2.423s2.42 1.084 2.42 2.423v188.359c0 5.532 1.372 9.452 4.074 11.651 3.691 2.999 8.912 1.953 8.962 1.944.163-.036.339-.055.505-.055h27.285a2.423 2.423 0 0 1 0 4.844h-27.056c-.493.086-1.568.236-2.964.236z"/><path d="M747.131 804.8v12.581h-16.054v-.358c-3.091-.227-5.538-2.778-5.538-5.933 0-3.151 2.447-5.703 5.538-5.929v-.361h16.054zm-39.544-189.024h-12.585v16.054h.359c.229 3.088 2.783 5.54 5.933 5.54 3.151 0 5.705-2.451 5.933-5.54h.359v-16.054z"/></g><g fill="#155c8f"><path d="M835.643 617.917H303.257c-71.89 0-130.377-58.526-130.377-130.467 0-71.911 58.487-130.414 130.377-130.414 8.495 0 16.939.828 25.238 2.469 4.086-28.344 17.309-54.454 38.074-74.702 24.446-23.835 56.73-36.962 90.905-36.962 22.835 0 44.771 5.862 64.323 17.083 9.48-27.835 26.744-52.802 49.716-71.535 27.913-22.761 63.151-35.296 99.226-35.296 82.757 0 150.795 64.226 156.882 145.453 2.76-.168 5.414-.249 8.021-.249 86.748 0 157.324 70.541 157.324 157.248 0 86.775-70.575 157.372-157.323 157.372zm-532.386-236.64c-58.523 0-106.134 47.629-106.134 106.173 0 58.573 47.612 106.225 106.134 106.225h532.385c73.382 0 133.083-59.722 133.083-133.13 0-73.339-59.701-133.005-133.083-133.005-5.417 0-11.191.44-18.172 1.387a12.1 12.1 0 0 1-9.602-2.883 12.113 12.113 0 0 1-4.147-9.128c0-.794.058-1.464.102-1.884-.212-73.203-59.832-132.697-133.084-132.697-61.967 0-116.612 43.946-129.933 104.494a12.12 12.12 0 0 1-19.198 7.026c-18.639-14.244-40.816-21.773-64.135-21.773-57.733 0-104.311 45.278-106.04 103.079a12.12 12.12 0 0 1-15.816 11.179 105.883 105.883 0 0 0-32.36-5.063z"/><path d="M587.902 390.278s-.444 1.01 1.449 1.845l4.744 2.711s1.408.75 1.546 2.919c0 0 .518 2.691-.503 3.477l-6.294 4.234s-1.225.553-.781 2.137l2.596 5.757s1.053 1.274 2.312.624l5.134-1.509s2.046-.851 3.901 1.192c0 0 2.145 1.783 1.779 3.53l-1.571 6.348s-.578 1.442 1.305 2.121l5.281 2.113s1.714.349 2.322-.892l2.849-5.169s.563-1.599 2.84-1.725c0 0 3.044-.749 4.264 1.223l3.376 5.47s.512 1.321 2.606.821l4.973-2.134s1.711-.837 1.017-2.636l-1.549-5.778s-.554-1.486 1.35-3.287c0 0 1.798-2.359 3.829-1.771l5.791 1.386s1.709.647 2.444-1.099l1.921-4.989s.851-1.847-1.042-2.862l-5.513-2.84s-1.419-1.46-1.342-3.319c0 0-.058-2.918 1.624-3.695l5.121-3.203s1.46-.976.981-2.339l-2.692-5.95s-.875-.984-1.878-.555l-6.763 1.926s-2.077-.187-3.332-2.063c0 0-1.479-1.779-1.467-2.552 0 0 1.678-6.609 1.773-6.939 0 0 .485-1.403-.843-1.972l-5.62-2.284s-1.295-.294-1.804.615l-3.866 6.697s-1.587.994-3.214.791c0 0-2.8-.416-3.434-1.34l-3.279-5.355s-.806-1.695-2.383-1.099l-5.586 2.37s-1.128.511-.784 1.877l1.823 6.663s.732 1.968-2.024 3.944c0 0-1.657 1.825-4.324 1.056-2.658-.768-5.084-1.293-5.084-1.293s-1.402-.482-2.01.941c-.609 1.43-1.969 5.861-1.969 5.861zm20.088 4.156c2.085-5.212 7.999-7.752 13.216-5.665 5.212 2.084 7.749 8.004 5.664 13.215-2.085 5.213-8.005 7.748-13.213 5.665a10.166 10.166 0 0 1-5.667-13.215z"/><path d="M511.027 431.588s-.012 1.538 2.872 1.566l7.559.886s2.215.187 3.571 2.894c0 0 2.14 3.168 1.262 4.728l-5.751 8.87s-1.269 1.375.166 3.17l6.477 5.952s2.042 1.056 3.304-.463l5.751-4.74s2.16-2.209 5.652-.607c0 0 3.726 1.116 4.215 3.549l1.455 9s.047 2.157 2.829 1.998l7.919-.179s2.395-.491 2.492-2.413l.82-8.181s-.146-2.352 2.703-3.761c0 0 3.494-2.625 6.128-.766l7.325 5.163s1.376 1.411 3.785-.377l5.204-5.445s1.734-2.013-.135-3.939l-5.145-6.558s-1.528-1.598-.067-4.947c0 0 1.016-4.01 3.936-4.365l8.18-1.389s2.545-.105 2.532-2.745l-.269-7.44s.08-2.836-2.904-3.105l-8.606-.62s-2.624-1.09-3.541-3.521c0 0-1.667-3.705.065-5.62l4.805-6.907s1.341-2.048-.018-3.532l-6.701-6.155s-1.657-.783-2.707.316l-7.617 6.165s-2.764.901-5.401-.817c0 0-2.866-1.473-3.272-2.471 0 0-1.464-9.382-1.524-9.862 0 0-.141-2.06-2.16-2.063l-8.448.15s-1.818.323-1.98 1.771l-1.292 10.691s-1.486 2.148-3.679 2.774c0 0-3.82.999-5.137.166l-7.128-5.076s-1.961-1.731-3.651-.106l-5.867 6.09s-1.169 1.277.019 2.834l5.983 7.548s2.017 2.119-.439 6.158c0 0-1.126 3.242-4.959 3.713-3.831.474-7.226 1.13-7.226 1.13s-2.062.14-2.06 2.303c.001 2.165.675 8.585.675 8.585zM537 425.976c-.207-8.949 6.883-16.374 15.832-16.576 8.951-.208 16.372 6.885 16.577 15.835.203 8.949-6.884 16.368-15.833 16.574-8.953.206-16.374-6.885-16.576-15.833zm95.73-114.747l-2.248-10.988a15.737 15.737 0 0 0-7.764-10.6 15.735 15.735 0 0 0-10.817-1.67l-27.683 5.659a15.764 15.764 0 0 0-12.454 13.337l-.3 2.246 11.647-2.384.37-.524c1.059-1.503 3.12-2.527 6.496-3.215l20.339-4.16c2.949-.603 5.28-.447 6.934.477 1.604.893 2.63 2.528 3.143 4.985l1.411 6.898c.806 5.238-1.255 7.865-7.108 9.063l-12.391 2.536-.183-.889a15.747 15.747 0 0 0-7.765-10.598 15.768 15.768 0 0 0-10.824-1.674l-27.68 5.665a15.653 15.653 0 0 0-9.987 6.753 15.643 15.643 0 0 0-2.285 11.834l2.249 10.979a15.778 15.778 0 0 0 7.763 10.603l.003.002a15.749 15.749 0 0 0 10.819 1.671l27.676-5.66a15.723 15.723 0 0 0 12.489-13.6l.261-2.212-11.822 2.416-.37.565c-1.053 1.614-3.117 2.715-6.312 3.369l-20.339 4.16c-3.436.702-5.644.639-7.164-.209-1.483-.827-2.436-2.532-2.918-5.255l-1.427-6.99c-.52-2.448-.341-4.291.543-5.643 1.029-1.564 3.12-2.62 6.58-3.327l12.396-2.535.181.884a15.747 15.747 0 0 0 7.763 10.602 15.744 15.744 0 0 0 10.829 1.673l27.677-5.661c8.506-1.744 14.011-10.081 12.272-18.583zm-45.533 13.077c-1.226-.684-2.091-1.984-2.621-3.954 1.734-.076 3.185.19 4.307.817 1.314.733 2.239 1.973 2.812 3.752-1.972.188-3.417-.011-4.498-.615zm-142.73 205.498c-3.549-18.464 8.489-22.722 8.489-22.722s4.249-32.288 41.625-32.288c37.37 0 40.202 31.988 40.202 31.988s11.89 4.19 11.325 19.434c0 24.516-15.578 28.106-15.578 28.106-8.772 0-9.339-7.476-9.339-7.476v-30.495c0-7.474 8.704-8.572 8.704-8.572 0-6.869-14.651-29.288-35.314-29.288-20.672 0-34.52 22.017-34.806 29.485 7.428-1.381 8.471 5.687 8.471 5.687v24.516c0 8.967-1.697 11.657-5.659 12.252 1.347 6.502 11.711 10.036 11.711 10.036l3.976.967c.987-3.249 3.839-5.62 7.244-5.62 4.226 0 7.645 3.615 7.645 8.074 0 4.462-3.419 8.073-7.645 8.073-3.113 0-7.477-2.157-7.236-7.368l-.159-.426c-8.689-.589-16.886-7.978-19.032-12.836-.002.001-10.234 1.29-14.624-21.527zm442.881-105.252c-8.062-6.991-16.051-3.137-16.051-3.137l1.039 6.328s6.172-2.1 11.133 2.206c4.952 4.303 3.693 10.113 3.693 10.113l6.952-.491c0 .001.67-8.564-6.766-15.019z"/><path d="M895.701 412.698c-13.377-10.861-27.311-5.224-27.311-5.224l1.529 6.769s13.139-3.455 22.13 4.344c8.983 7.798 8.205 21.424 8.205 21.424l6.925.625c0-.001 3.394-15.857-11.478-27.938zm-17.62 43.246s10.236 18.427 0 25.934c-10.239 7.505-36.162-10.919-42.308-23.206-6.141-12.282-8.475-20.903-1.831-24.624 7.598-4.256 19.147-.607 23.663 1.424 0 0-19.105-13.583-30.021-6.14-12.198 8.314-6.143 25.931 8.189 41.628 8.187 7.5-7.424 9.567-17.929-22.825-.996 33.941 35.827 45.831 35.827 45.831s32.681 11.961 34.646-12.087c1.496-18.336-10.236-25.935-10.236-25.935zm-14.459 37.346c-11.344-3.455-11.78-9.577-11.78-9.577 1.483.497 22.19 14.796 36.002.497-2.885 6.799-12.878 12.53-24.222 9.08zm-29.014 2.079s-2.49 6.751-7.653 11.005c-5.167 4.255-6.683 4.555-6.386 5.773.31 1.215.612 5.773.612 5.773h51.364l-2.741-9.417c-.001 0-23.042.235-35.196-13.134z"/><path d="M841.848 450.153l1.023 4.306 22.511-4.93s-3.691 12.166-4.414 22.665c0 0 3.979 1.66 3.979 1.36 0-.914 5.094-23.556 5.094-23.556s3.941.811 6.068-2.066c1.871-2.526 4.031-6.137-.833-11.152 0 0-7.789-4.406-11.05 2.473-3.039 4.218-1.446 6.515-1.446 6.515l-20.932 4.385zm-419.422-52.239c-35.435-.961-37.377 45.221-37.377 45.221 20.982 15.396 76.119 2.718 76.119 2.718.975-1.048 1.788-46.834-38.742-47.939zm10.469-39.188c-3.973-3.094-9.221-4.73-14.77-4.171-11.082 1.106-19.208 10.52-18.156 21.027 1.056 10.501 10.889 18.118 21.964 17.006 7.428-.741 13.514-5.226 16.411-11.255 5.124-13.698-5.125-22.783-5.449-22.607z"/><path d="M479.421 341.015h-23.855c-9.754 0-18.08 5.98-21.584 14.468 2.115 1.087 6.708 4.56 8.449 10.786 1.617 5.767 1.742 12.699-1.618 17.308 2.67 2.355 5.158 3.586 8.705 4.529l-7.47 8.594 20.625-7.8h16.747c12.919 0 23.392-10.475 23.392-23.393v-1.096c.001-12.924-10.472-23.396-23.391-23.396zm6.3 30.68h-37.233v-4.572h37.233v4.572zm0-9.145h-37.233v-4.571h37.233v4.571zm-77.318 123.313c-4.143-12.486-17.524-18.911-30.119-15.106-16.742 5.056-23.674 26.086-23.674 26.086-3.004 6.471-5.803 13.168-14.331 18.956-16.171 10.955-32.963-20.039-23.321 9.366.561 1.708 1.379 3.379 2.313 5.014-10.829-5.813-12.295-6.385-7.54 7.549 5.575 16.312 22.591 23.693 39.514 25.142 15.042 0 31.92-3.761 38.441-18.719 4.863-11.163 4.983-26.462 17.106-39.564 0 0 7.25-6.53 17.832-7.705-14-.817-16.221-11.019-16.221-11.019zm-18.852 7.581a6.661 6.661 0 0 1-6.659-6.663 6.663 6.663 0 0 1 6.659-6.663 6.663 6.663 0 0 1 0 13.326zm394.104 41.778c-4.196.267-7.895 2.097-10.689 4.824l-21.832-12.003c.092-.909.162-1.828.104-2.769-.089-1.427-.413-2.774-.828-4.068l24.422-18.251c3.209 2.659 7.366 4.18 11.85 3.902 9.326-.591 16.408-8.637 15.831-17.959-.595-9.332-8.634-16.416-17.962-15.82-9.328.584-16.41 8.623-15.821 17.955.068 1.068.254 2.098.506 3.1l-25.239 18.4c-3.036-2.128-6.741-3.326-10.725-3.075-9.322.585-16.409 8.625-15.819 17.957.591 9.325 8.625 16.409 17.959 15.818 4.699-.295 8.821-2.486 11.688-5.774l20.915 12.07a16.928 16.928 0 0 0-.183 3.651c.586 9.332 8.625 16.42 17.954 15.828 9.326-.592 16.413-8.627 15.823-17.959-.577-9.326-8.629-16.416-17.954-15.827zm-17.231-211.201l-27.663-24.481c-.628-.572-1.326-.982-2.054-1.327a41.29 41.29 0 0 0 5.632-20.872c0-22.934-18.593-41.528-41.525-41.528-22.936 0-41.531 18.593-41.531 41.528s18.596 41.53 41.531 41.53a41.31 41.31 0 0 0 22.468-6.616c.44.863 1.017 1.675 1.776 2.359l27.662 24.482a8.262 8.262 0 0 0 11.668-.556l2.598-2.852a8.266 8.266 0 0 0-.562-11.667zm-65.61-21.235c-14.054 0-25.442-11.388-25.442-25.443 0-14.051 11.388-25.439 25.442-25.439 14.048 0 25.438 11.389 25.438 25.439-.001 14.055-11.39 25.443-25.438 25.443zm-19.968 178.686s-.352-7.705-7.872-13.204c-8.151-5.958-15.013-2.21-15.013-2.21l1.656 5.63s5.402-2.105 10.419 1.562c5.011 3.666 4.526 8.924 4.526 8.924l6.284-.702z"/><path d="M679.552 455.405c-14.411-7.608-25.816-1.727-25.816-1.727l2.156 6.01s11.61-3.588 20.698 3.06c9.085 6.645 9.914 18.884 9.914 18.884l6.088-.552c-.001-.001 1.784-17.848-13.04-25.675zm-13.551 75.89v-43.306s1.707-8.379-9.779-8.379h-61.976s-6.469-.506-6.469 7.787v47.625l18.156 29.8h78.23s6.048-5.59-2.325-15.366c-8.377-9.778-15.837-18.161-15.837-18.161zm-3.229 12.533h-9.636l-4.408-4.87h10.082l3.962 4.87zm-27.957-4.87h10.082l3.963 4.87h-9.629l-4.416-4.87zm.136 4.87h-9.63l-4.416-4.87h10.086l3.96 4.87zm-36.465-12.533v-42.374h58.203v42.374h-58.203zm8.509 7.663h10.083l3.961 4.87h-9.624l-4.42-4.87zm11.395 13.464l-4.417-4.872h10.085l3.964 4.872h-9.632zm13.912 0l-4.417-4.872h10.085l3.96 4.872h-9.628zm13.905 0l-4.408-4.872h10.073l3.964 4.872h-9.629zm13.913 0l-4.408-4.872h10.077l3.963 4.872h-9.632z"/><path d="M628.363 508.585l-10.817 10.818 3.197 3.048 10.854-11.121 2.668 6.596 5.901-19.173-18.192 8.358zm88.794-91.651l12.471-21.601 12.466-21.601h-12.266v-20.83c0-.905-.732-1.636-1.632-1.636h-22.082c-.898 0-1.633.731-1.633 1.636v20.83h-12.269l12.469 21.601 12.476 21.601z"/><path d="M755.048 397.626h-3.914v24.75h-67.685v-24.75h-4.817a6.813 6.813 0 0 0-6.811 6.818v25.129a6.81 6.81 0 0 0 6.811 6.812h76.415a6.815 6.815 0 0 0 6.818-6.812v-25.129a6.816 6.816 0 0 0-6.817-6.818zm93.016-31.586s-8.714-10.927-15.439-12.786c0 0-1.636-.972-1.811.976 0 0-.531 4.688-.531 5.751 0 0 .445.354-.708 1.591-1.151 1.241-15.304 17.253-15.304 17.253s-.976.707-1.725.797c0 0-7.564-1.46-10.612 2.696 0 0-.442.396.434 1.46l7.566 8.163-20.037 27.001 23.264-24.326 7.831 6.1s1.82.618 2.435-.128c.619-.753 2.743-4.428 1.152-10.306 0 0-.224-.929.352-1.905.575-.972 14.683-17.471 14.683-17.471s.578-.573 1.286-.355c0 0 6.055-1.021 7.029-2.745-.001-.002 1.066-.527.135-1.766zm-552.546 52.844v59.621a8.266 8.266 0 0 0 8.268 8.267h34.57a8.26 8.26 0 0 0 8.264-8.267v-59.621a8.263 8.263 0 0 0-8.264-8.266h-34.57a8.267 8.267 0 0 0-8.268 8.266zm22.256 61.858a3.296 3.296 0 1 1 6.592.002 3.296 3.296 0 0 1-6.592-.002zm-14.947-61.29h37.146v53.641h-37.146v-53.641zm-18.387-.362v1.232a1.696 1.696 0 0 0-1.15 1.602v1.093a3.115 3.115 0 0 0-1.362 2.582v46.662c0 .721.253 1.376.658 1.903-.002.029-.009.056-.009.087v2.528a2.416 2.416 0 0 0 2.414 2.413 2.415 2.415 0 0 0 2.412-2.413v-2.528c0-.031-.007-.058-.008-.087a3.113 3.113 0 0 0 .657-1.903v-46.662a3.113 3.113 0 0 0-1.362-2.582v-1.093c0-.884-.675-1.601-1.537-1.685v-1.149a.356.356 0 1 0-.713 0zm.552 58.677a.99.99 0 0 1-.99-.987v-1.59c.313.108.641.18.99.18.347 0 .676-.072.987-.18v1.59a.99.99 0 0 1-.987.987z"/></g><path fill="#002638" d="M157.469 806.498H74.861c-13.73 0-24.861 11.133-24.861 24.863v158.721c0 13.734 11.131 24.866 24.861 24.866h82.608c13.735 0 24.867-11.132 24.867-24.866V831.361c0-13.73-11.132-24.863-24.867-24.863zm-1.644 19.972c2.783 0 5.046 2.254 5.046 5.034a5.039 5.039 0 0 1-5.046 5.039 5.037 5.037 0 0 1 0-10.073zm-63.694-.243h46.823a3.81 3.81 0 0 1 3.824 3.822 3.813 3.813 0 0 1-3.824 3.831H92.131a3.81 3.81 0 0 1-3.822-3.831 3.807 3.807 0 0 1 3.822-3.822zm39.721 174.55H99.258a2.66 2.66 0 0 1-2.671-2.676c0-1.448 1.201-2.636 2.671-2.636h32.594a2.647 2.647 0 0 1 2.65 2.636 2.646 2.646 0 0 1-2.65 2.676zm31.466-16.495H67.77V845.385h95.548v138.897z"/><g fill="#155c8f"><path d="M128.501 922.185c-.03-.027-.068-.052-.102-.077-3.167-3.359-7.722-5.402-12.725-5.35v-.007c-.068-.003-.137.007-.205 0-.068.007-.134-.003-.204 0v.007c-5-.052-9.556 1.991-12.722 5.35-.036.025-.073.05-.106.077-.056.04-.108.085-.159.128-1.076.956-1.319 2.371-.539 3.16l2.371 2.441c.775.788 2.276.661 3.35-.288.031-.027.05-.05.083-.074l.004.001c.029-.028.053-.059.083-.094.09-.105.183-.215.279-.324 1.8-1.982 4.446-3.191 7.356-3.127v.019c.054-.007.106-.019.16-.019.016 0 .032-.005.044-.005.015 0 .03.005.045.005.055 0 .106.012.16.019v-.019c2.909-.064 5.557 1.145 7.353 3.127.1.108.194.218.284.324.028.034.056.065.084.094l.004-.001a.708.708 0 0 1 .08.074c1.073.949 2.577 1.076 3.353.288l2.37-2.441c.778-.789.536-2.204-.538-3.16-.056-.043-.107-.088-.163-.128zm-45.927-20.924c.829.845 2.211.938 3.266.261l.008.003a.67.67 0 0 0 .061-.05c.095-.068.194-.134.287-.221.128-.108.238-.229.337-.358 7.526-6.827 17.7-10.855 28.732-10.539v.006c.067-.006.136 0 .204-.006.068.006.137 0 .205.006v-.006c11.031-.316 21.203 3.712 28.73 10.539a2.4 2.4 0 0 0 .341.358c.089.088.19.153.284.221.023.016.044.039.064.05l.007-.003c1.054.677 2.44.583 3.27-.261l2.831-2.903c.863-.875.82-2.258-.037-3.216a3.706 3.706 0 0 0-.228-.223 2.22 2.22 0 0 0-.313-.239c-9.186-8.407-21.639-13.376-35.153-13.007-13.515-.37-25.964 4.6-35.15 13.007a1.98 1.98 0 0 0-.313.239 2.26 2.26 0 0 0-.225.223c-.86.958-.903 2.342-.043 3.216l2.835 2.903z"/><path d="M138.879 909.039c-.113-.089-.22-.178-.339-.251-5.883-5.714-14.003-9.179-22.867-9.142h-.409c-8.864-.037-16.979 3.428-22.863 9.142-.12.073-.234.162-.34.251-.043.039-.086.082-.127.122-.955.959-1.078 2.359-.252 3.198l2.646 2.711c.804.83 2.229.84 3.287.065.077-.062.151-.111.226-.184.195-.168.356-.355.489-.558 4.42-4.238 10.505-6.768 17.138-6.662 6.633-.105 12.72 2.425 17.14 6.662.132.203.296.39.486.558.074.073.152.122.229.184 1.059.775 2.481.765 3.287-.065l2.644-2.711c.826-.839.702-2.239-.25-3.198l-.125-.122zm-23.41 23.234a5.857 5.857 0 1 0 0 11.715 5.859 5.859 0 1 0 0-11.715z"/></g><path fill="#002638" d="M1133.37 783.417h-69.514c-9.185 0-16.621 7.439-16.621 16.622v119.898c0 9.179 7.436 16.618 16.621 16.618h69.514c9.179 0 16.63-7.439 16.63-16.618V800.039c0-9.183-7.451-16.622-16.63-16.622zm-34.758 138.116a9.272 9.272 0 0 1-9.278-9.28c0-5.126 4.15-9.28 9.278-9.28 5.129 0 9.286 4.154 9.286 9.28.001 5.132-4.157 9.28-9.286 9.28zm37.031-27.751h-74.066v-95.145h74.066v95.145z"/><g fill="#155c8f"><path d="M1108.344 854.374c-.031-.031-.062-.055-.092-.079a.372.372 0 0 0-.059-.043c-1.834-1.95-4.474-3.136-7.369-3.102v-.001c-.04-.003-.083.001-.117 0-.043.001-.083-.003-.122 0v.001a9.936 9.936 0 0 0-7.371 3.102 1.424 1.424 0 0 0-.059.043c-.033.024-.065.047-.095.079-.622.546-.759 1.371-.309 1.825l1.373 1.417c.448.454 1.317.385 1.939-.169.018-.013.028-.03.052-.043v.003c.016-.018.028-.036.046-.054.05-.065.108-.128.162-.189a5.567 5.567 0 0 1 4.261-1.815v.013c.031-.006.061-.013.094-.013.006 0 .016-.003.028-.003.009 0 .012.003.024.003.03 0 .059.007.094.013v-.013a5.57 5.57 0 0 1 4.26 1.815c.053.061.11.123.16.189.015.018.036.036.051.054v-.003c.018.013.033.03.047.043.624.554 1.494.624 1.942.169l1.372-1.417c.448-.454.312-1.279-.312-1.825zm13.032-15.743c-.037-.043-.083-.086-.129-.131a1.607 1.607 0 0 0-.181-.138c-5.322-4.866-12.533-7.745-20.359-7.534-7.834-.211-15.041 2.668-20.363 7.534a1.211 1.211 0 0 0-.314.269c-.499.557-.523 1.354-.028 1.862l1.645 1.682c.481.49 1.28.541 1.892.15l.006.003c.009-.007.024-.021.036-.028.055-.04.113-.079.163-.128.076-.065.14-.137.201-.208 4.358-3.955 10.248-6.29 16.64-6.102h.239c6.389-.187 12.282 2.147 16.643 6.102.054.071.119.143.195.208.052.049.11.088.168.128.009.007.019.021.03.028l.01-.003c.609.391 1.411.34 1.89-.15l1.644-1.682c.496-.508.472-1.305-.028-1.862z"/><path d="M1114.261 846.681c-.062-.05-.123-.101-.195-.146-3.406-3.311-8.113-5.319-13.243-5.295h-.239c-5.136-.024-9.834 1.984-13.244 5.295a1.664 1.664 0 0 0-.196.146l-.074.068c-.552.554-.621 1.365-.146 1.853l1.534 1.572c.463.481 1.287.487 1.904.037.042-.036.088-.064.131-.105.111-.098.206-.208.282-.324 2.56-2.454 6.086-3.923 9.932-3.862 3.835-.061 7.368 1.408 9.924 3.862.077.116.174.226.285.324.043.042.086.07.129.105.618.45 1.437.444 1.905-.037l1.531-1.572c.479-.488.41-1.299-.144-1.853l-.076-.068zm-13.555 13.457a3.39 3.39 0 0 0-3.397 3.394 3.395 3.395 0 1 0 6.79 0 3.394 3.394 0 0 0-3.393-3.394z"/></g><path d="M447.268 987.806h-14.187c.917-1.705 1.561-3.562 1.561-5.63 0-6.711-5.454-12.153-12.152-12.153h-71.127c-6.695 0-12.152 5.442-12.152 12.153 0 2.068.665 3.926 1.545 5.63h-13.235c-8.514 0-15.418 6.909-15.418 15.429 0 8.526 6.904 15.429 15.418 15.429h119.746c8.521 0 15.437-6.903 15.437-15.429.001-8.521-6.916-15.429-15.436-15.429zm63.096-290.432H250.103c-26.634 0-48.216 21.585-48.216 48.208V910.92c0 26.661 21.582 48.216 48.216 48.216h237.428V931.74H268.606c-31.415.616-41.252-10.973-41.111-38.116V762.891c1.588-30.753 12.007-37.699 41.111-38.122h221.835c36.616-.159 41.251 12.589 41.112 38.122v124.95h27.032V745.583c-.001-26.624-21.586-48.209-48.221-48.209z" fill="#002638"/><g fill="#155c8f"><path d="M404.782 845.716l-.275-.226-.183-.129c-5.517-5.865-13.467-9.425-22.184-9.328v-.021c-.117-.003-.24.021-.354 0-.125.021-.241-.003-.364 0v.021c-8.719-.098-16.662 3.463-22.18 9.328a3.859 3.859 0 0 1-.186.129c-.097.079-.188.15-.276.226-1.875 1.657-2.296 4.132-.939 5.513l4.131 4.248c1.353 1.379 3.971 1.161 5.844-.497.054-.044.089-.094.144-.132l.005.01a3.51 3.51 0 0 0 .145-.168c.159-.184.321-.374.493-.561 3.131-3.464 7.748-5.575 12.819-5.454v.033c.099-.012.185-.033.285-.033.022 0 .052-.016.079-.016.019 0 .045.016.074.016.094 0 .18.021.28.033v-.033c5.073-.122 9.688 1.99 12.82 5.454.174.187.336.377.491.561.047.061.099.113.147.168l.01-.01c.052.039.089.088.139.132 1.872 1.659 4.493 1.877 5.847.497l4.126-4.248c1.363-1.381.936-3.856-.938-5.513zm39.236-47.369c-.122-.132-.256-.282-.396-.401a4.154 4.154 0 0 0-.545-.41c-16.019-14.659-37.732-23.326-61.291-22.685-23.568-.641-45.276 8.025-61.295 22.685a4.121 4.121 0 0 0-.942.811c-1.496 1.663-1.572 4.073-.073 5.602l4.947 5.059c1.443 1.474 3.857 1.632 5.695.459l.015.003.106-.085c.166-.119.338-.236.497-.388.229-.194.42-.396.591-.625 13.124-11.899 30.862-18.928 50.096-18.379v.009c.122-.009.238 0 .364-.009.114.009.237 0 .354.009v-.009c19.234-.549 36.97 6.48 50.096 18.379a3.8 3.8 0 0 0 .594.625c.155.151.328.269.494.388.035.027.076.061.105.085l.019-.003c1.836 1.173 4.251 1.016 5.695-.459l4.945-5.059c1.501-1.53 1.425-3.939-.071-5.602z"/><path d="M422.599 822.567a7.669 7.669 0 0 0-.589-.437c-10.26-9.963-24.417-16.006-39.87-15.929h-.718c-15.453-.077-29.604 5.966-39.865 15.929a6.28 6.28 0 0 0-.589.437 8.664 8.664 0 0 1-.221.212c-1.667 1.673-1.881 4.113-.44 5.581l4.615 4.727c1.403 1.446 3.883 1.467 5.728.11.137-.101.267-.19.396-.312.336-.295.621-.625.85-.977 7.708-7.39 18.321-11.797 29.89-11.622 11.559-.175 22.176 4.232 29.88 11.622.234.352.52.681.849.977.131.122.264.211.399.312 1.849 1.357 4.324 1.336 5.731-.11l4.615-4.727c1.44-1.468 1.225-3.908-.442-5.581a4.86 4.86 0 0 1-.219-.212zm-40.813 40.507a10.22 10.22 0 0 0-10.223 10.223c0 5.638 4.576 10.215 10.223 10.215 5.639 0 10.216-4.578 10.216-10.215 0-5.652-4.577-10.223-10.216-10.223z"/></g><g fill="#002638"><path d="M1008.041 742.595H755.746c-8.009 0-14.456 6.493-14.456 14.471V903.22c0 7.982 6.447 14.487 14.456 14.487h252.296c8.034 0 14.486-6.505 14.486-14.487V757.066c-.001-7.977-6.452-14.471-14.487-14.471zm-8.245 155.334H762.945V760.496h236.851v137.433zm57.097 88.393c.404 0 .778.134 1.128.35h.679l-41.331-59.883-271.372-.612-31.166 60.495h.846c.365-.217.736-.35 1.139-.35h340.077zm-207.085-6.735l4.597-8.377 60.889.071 6.065 8.306h-71.551zm-89.132-45.207l240.53.214 21.118 30.13-276.315-.341 14.667-30.003z"/><path d="M1058.021 985.284H715.677c-1.693 1.577-2.947 6.599-2.947 12.683 0 7.405 1.813 13.322 4.086 13.322h340.077c2.275 0 4.086-5.917 4.086-13.322 0-6.084-1.233-11.106-2.958-12.683z"/></g><g fill="#155c8f"><path d="M903.171 842.212a11.493 11.493 0 0 1-.23-.19c-.049-.037-.097-.074-.156-.11-4.642-4.93-11.325-7.93-18.664-7.85v-.006c-.097-.003-.193.006-.296 0-.102.006-.194-.003-.304 0v.006c-7.332-.08-14.009 2.921-18.652 7.85a2.841 2.841 0 0 0-.156.11c-.085.067-.165.128-.237.19-1.577 1.396-1.93 3.476-.791 4.633l3.482 3.577c1.139 1.164 3.336.979 4.913-.422.043-.034.074-.07.122-.111v.007c.049-.043.08-.086.123-.137.132-.156.27-.318.413-.475 2.635-2.907 6.514-4.685 10.784-4.59v.031c.083-.006.157-.031.238-.031.027 0 .043-.006.067-.006.019 0 .043.006.062.006.079 0 .156.025.233.031v-.031c4.272-.095 8.153 1.682 10.786 4.59.15.157.282.319.417.475.04.05.079.094.117.137l.012-.007.119.111c1.572 1.4 3.776 1.586 4.913.422l3.476-3.577c1.14-1.157.786-3.237-.791-4.633zm33.001-39.85a8.576 8.576 0 0 0-.328-.336 4.527 4.527 0 0 0-.465-.342c-13.47-12.324-31.739-19.62-51.554-19.074-19.824-.546-38.081 6.75-51.551 19.074-.163.1-.324.212-.463.342a4.325 4.325 0 0 0-.33.336c-1.261 1.406-1.326 3.428-.067 4.711l4.165 4.263c1.218 1.238 3.243 1.373 4.793.383l.007.006a.874.874 0 0 0 .092-.074c.142-.101.279-.203.419-.325.192-.162.35-.341.496-.526 11.041-10.011 25.957-15.923 42.134-15.455v.007c.103-.007.202 0 .304-.007.102.007.199 0 .296.007v-.007c16.183-.468 31.106 5.445 42.142 15.455.145.184.309.364.497.526.132.122.284.224.422.325.025.021.061.056.086.074l.012-.006c1.552.99 3.577.855 4.796-.383l4.152-4.263c1.268-1.283 1.203-3.305-.055-4.711z"/><path d="M918.159 822.742a5.485 5.485 0 0 0-.492-.365c-8.635-8.382-20.541-13.463-33.546-13.408h-.6c-12.992-.055-24.897 5.026-33.531 13.408a4.492 4.492 0 0 0-.496.365c-.058.062-.125.119-.186.18-1.4 1.4-1.581 3.458-.37 4.689l3.881 3.981c1.182 1.213 3.265 1.232 4.823.095.113-.092.224-.163.327-.267.286-.251.527-.529.719-.821 6.486-6.214 15.409-9.923 25.138-9.776 9.723-.147 18.655 3.562 25.136 9.776.191.292.435.57.716.821.111.104.221.175.334.267 1.559 1.137 3.641 1.118 4.82-.095l3.88-3.981c1.21-1.231 1.03-3.289-.37-4.689-.063-.061-.124-.118-.183-.18zm-34.333 34.073c-4.745 0-8.598 3.846-8.598 8.595 0 4.743 3.853 8.591 8.598 8.591a8.593 8.593 0 1 0 0-17.186z"/></g><path fill="#002638" d="M702.784 876.012H509.223c-14.826 0-26.836 12.024-26.836 26.844v112.223c0 14.83 12.011 26.829 26.836 26.829h193.562c14.818 0 26.83-11.999 26.83-26.829V902.856c-.001-14.82-12.012-26.844-26.831-26.844zm-200.817 72.254c5.905 0 10.694 4.79 10.694 10.701a10.689 10.689 0 0 1-10.694 10.695c-5.917 0-10.704-4.778-10.704-10.695 0-5.912 4.787-10.701 10.704-10.701zm204.74-52.516v128.582H521.025V895.75h185.682z"/><g fill="#155c8f"><path d="M627.091 973.751c-.068-.056-.137-.111-.205-.174-.046-.03-.089-.061-.137-.095-4.123-4.373-10.055-7.038-16.567-6.965v-.01c-.089-.006-.177.01-.267 0-.091.01-.174-.006-.267 0v.01c-6.509-.073-12.441 2.592-16.564 6.965a1.398 1.398 0 0 1-.138.095c-.074.063-.141.117-.206.174-1.399 1.238-1.715 3.082-.704 4.113l3.091 3.176c1.007 1.031 2.964.866 4.361-.374.042-.033.062-.07.107-.101l.005.006c.04-.039.073-.079.11-.12.117-.142.239-.284.365-.422 2.338-2.585 5.785-4.159 9.574-4.073v.025c.076-.006.138-.025.212-.025.019 0 .037-.007.055-.007.018 0 .039.007.056.007.074 0 .14.019.211.025v-.025c3.786-.086 7.235 1.488 9.575 4.073.128.138.25.279.37.422.036.042.07.082.107.12l.007-.006c.037.031.067.068.105.101 1.397 1.24 3.354 1.405 4.359.374l3.087-3.176c1.012-1.031.702-2.875-.702-4.113zm29.295-35.376a2.75 2.75 0 0 0-.294-.298 3.549 3.549 0 0 0-.407-.309c-11.96-10.939-28.174-17.414-45.77-16.933-17.593-.481-33.804 5.994-45.764 16.933a3.022 3.022 0 0 0-.702.607c-1.119 1.243-1.177 3.038-.062 4.181l3.696 3.78c1.076 1.099 2.882 1.221 4.254.343l.012.004a.697.697 0 0 0 .076-.068c.129-.088.254-.175.376-.287.169-.144.312-.303.44-.466 9.798-8.888 23.044-14.135 37.408-13.723v.007c.088-.007.177 0 .267-.007.091.007.178 0 .267.007v-.007c14.365-.413 27.607 4.835 37.408 13.723.126.163.276.322.442.466.117.111.248.199.371.287.027.022.058.05.077.068l.018-.004c1.37.878 3.174.756 4.251-.343l3.69-3.78c1.119-1.143 1.065-2.938-.054-4.181z"/><path d="M640.394 956.465a4.742 4.742 0 0 0-.438-.327c-7.663-7.44-18.233-11.954-29.775-11.901h-.534c-11.537-.054-22.107 4.46-29.772 11.901-.151.098-.3.208-.435.327l-.172.159c-1.24 1.244-1.397 3.068-.327 4.163l3.451 3.531c1.047 1.082 2.9 1.094 4.276.083.102-.074.199-.143.293-.232.252-.224.468-.471.64-.73 5.754-5.516 13.68-8.809 22.314-8.679 8.637-.131 16.563 3.163 22.317 8.679.172.26.389.506.633.73.096.089.2.158.295.232 1.382 1.011 3.234.999 4.284-.083l3.44-3.531c1.079-1.096.919-2.919-.325-4.163-.056-.054-.11-.108-.165-.159zm-30.48 30.248a7.627 7.627 0 0 0-7.63 7.627 7.631 7.631 0 0 0 15.26 0 7.624 7.624 0 0 0-7.63-7.627z"/></g></svg>